<?xml version="1.0" encoding="utf-8"?>
<!-- Generator: Adobe Illustrator 24.3.0, SVG Export Plug-In . SVG Version: 6.00 Build 0)  -->
<svg version="1.1" id="Capa_1" xmlns="http://www.w3.org/2000/svg" xmlns:xlink="http://www.w3.org/1999/xlink" x="0px" y="0px"
	 viewBox="0 0 100 100" style="enable-background:new 0 0 100 100;" xml:space="preserve">
<style type="text/css">
	.st0{fill:url(#SVGID_1_);}
</style>
<linearGradient id="SVGID_1_" gradientUnits="userSpaceOnUse" x1="18.2" y1="1059.8" x2="81.8" y2="996.2" gradientTransform="matrix(1 0 0 1 0 -978)">
	<stop  offset="0" style="stop-color:#00008C"/>
	<stop  offset="1" style="stop-color:#00AAFF"/>
</linearGradient>
<path class="st0" d="M50,5C25.2,5,5,25.2,5,50s20.2,45,45,45s45-20.2,45-45S74.8,5,50,5z M50,14c19.9,0,36,16.1,36,36S69.9,86,50,86
	S14,69.9,14,50S30.1,14,50,14z M37.9,36.4v2.9c0,1.3,1.2,2.1,2.4,1.8l5-1.6c1.2-0.4,2.4,0.5,2.4,1.8v27.5c0,1,0.8,1.9,1.9,1.9H54
	c1,0,1.9-0.8,1.9-1.9V31.5c0-1.3-1.3-2.2-2.5-1.8l-14.3,4.9C38.4,34.9,37.9,35.6,37.9,36.4z"/>
</svg>
