<?xml version="1.0" encoding="utf-8"?>
<!-- Generator: Adobe Illustrator 24.2.0, SVG Export Plug-In . SVG Version: 6.00 Build 0)  -->
<svg version="1.1" id="Capa_1" xmlns="http://www.w3.org/2000/svg" xmlns:xlink="http://www.w3.org/1999/xlink" x="0px" y="0px"
	 viewBox="0 0 24 24" style="enable-background:new 0 0 24 24;" xml:space="preserve">
<path d="M9,7h4c1.1,0,2,0.9,2,2v2c0,1.1-0.9,2-2,2h-2v2h4v2h-4H9v-4c0-1.1,0.9-2,2-2h2V9H9V7 M12,2c5.5,0,10,4.5,10,10
	s-4.5,10-10,10S2,17.5,2,12S6.5,2,12,2 M12,4c-4.4,0-8,3.6-8,8s3.6,8,8,8s8-3.6,8-8S16.4,4,12,4z"/>
</svg>
