<?xml version="1.0" encoding="utf-8"?>
<!-- Generator: Adobe Illustrator 24.3.0, SVG Export Plug-In . SVG Version: 6.00 Build 0)  -->
<svg version="1.1" xmlns="http://www.w3.org/2000/svg" xmlns:xlink="http://www.w3.org/1999/xlink" x="0px" y="0px"
	 viewBox="0 0 650 525" style="enable-background:new 0 0 650 525;" xml:space="preserve">
<style type="text/css">
	.st0{fill:url(#SVGID_1_);}
	.st1{fill:url(#SVGID_2_);}
	.st2{fill:url(#SVGID_3_);}
	.st3{fill:url(#SVGID_4_);}
	.st4{fill:url(#SVGID_5_);}
	.st5{fill:url(#SVGID_6_);}
	.st6{fill:url(#SVGID_7_);}
	.st7{fill:url(#SVGID_8_);}
	.st8{fill:url(#SVGID_9_);}
	.st9{fill:url(#SVGID_10_);}
	.st10{fill:url(#SVGID_11_);}
	.st11{fill:url(#SVGID_12_);}
	.st12{fill:url(#SVGID_13_);}
	.st13{fill:url(#SVGID_14_);}
	.st14{fill:url(#SVGID_15_);}
	.st15{fill:url(#SVGID_16_);}
	.st16{fill:url(#SVGID_17_);}
	.st17{fill:url(#SVGID_18_);}
	.st18{fill:url(#SVGID_19_);}
	.st19{fill:url(#SVGID_20_);}
	.st20{fill:url(#SVGID_21_);}
	.st21{fill:#7933FF;}
</style>
<g id="Capa_1">
	<g>
		
			<linearGradient id="SVGID_1_" gradientUnits="userSpaceOnUse" x1="37.0702" y1="674.5298" x2="37.0702" y2="640.9825" gradientTransform="matrix(1 0 0 -1 59.16 1072.4)">
			<stop  offset="0" style="stop-color:#6DC7FF"/>
			<stop  offset="1" style="stop-color:#E6ABFF"/>
		</linearGradient>
		<path class="st0" d="M112.25,425.91H80.21c-2.21,0-4.01-1.79-4.01-4.01v-16.02c0-2.21,1.79-4.01,4.01-4.01h32.05
			c2.21,0,4.01,1.79,4.01,4.01v16.02C116.26,424.12,114.47,425.91,112.25,425.91z"/>
		
			<linearGradient id="SVGID_2_" gradientUnits="userSpaceOnUse" x1="143.2116" y1="794.3171" x2="143.2116" y2="584.0209" gradientTransform="matrix(1 0 0 -1 59.16 1072.4)">
			<stop  offset="0" style="stop-color:#1A6DFF"/>
			<stop  offset="1" style="stop-color:#C822FF"/>
		</linearGradient>
		<path class="st1" d="M217.57,382.07l-21.21,21.2l-9.18-9.18l-5.66,5.66l9.18,9.18c1.56,1.57,3.61,2.34,5.67,2.34
			c2.05,0,4.11-0.78,5.67-2.34l21.2-21.2L217.57,382.07z"/>
		
			<linearGradient id="SVGID_3_" gradientUnits="userSpaceOnUse" x1="53.0928" y1="793.364" x2="53.0928" y2="583.0677" gradientTransform="matrix(1 0 0 -1 59.16 1072.4)">
			<stop  offset="0" style="stop-color:#1A6DFF"/>
			<stop  offset="1" style="stop-color:#C822FF"/>
		</linearGradient>
		<rect x="76.2" y="337.79" class="st2" width="72.1" height="8.01"/>
		
			<linearGradient id="SVGID_4_" gradientUnits="userSpaceOnUse" x1="53.0928" y1="793.364" x2="53.0928" y2="583.0677" gradientTransform="matrix(1 0 0 -1 59.16 1072.4)">
			<stop  offset="0" style="stop-color:#1A6DFF"/>
			<stop  offset="1" style="stop-color:#C822FF"/>
		</linearGradient>
		<rect x="76.2" y="353.81" class="st3" width="72.1" height="8.01"/>
		
			<linearGradient id="SVGID_5_" gradientUnits="userSpaceOnUse" x1="45.0815" y1="793.364" x2="45.0815" y2="583.0677" gradientTransform="matrix(1 0 0 -1 59.16 1072.4)">
			<stop  offset="0" style="stop-color:#1A6DFF"/>
			<stop  offset="1" style="stop-color:#C822FF"/>
		</linearGradient>
		<rect x="76.2" y="369.83" class="st4" width="56.08" height="8.01"/>
		
			<linearGradient id="SVGID_6_" gradientUnits="userSpaceOnUse" x1="37.0702" y1="793.364" x2="37.0702" y2="583.0677" gradientTransform="matrix(1 0 0 -1 59.16 1072.4)">
			<stop  offset="0" style="stop-color:#1A6DFF"/>
			<stop  offset="1" style="stop-color:#C822FF"/>
		</linearGradient>
		<rect x="76.2" y="385.85" class="st5" width="40.06" height="8.01"/>
		
			<linearGradient id="SVGID_7_" gradientUnits="userSpaceOnUse" x1="89.1435" y1="793.364" x2="89.1435" y2="583.0677" gradientTransform="matrix(1 0 0 -1 59.16 1072.4)">
			<stop  offset="0" style="stop-color:#1A6DFF"/>
			<stop  offset="1" style="stop-color:#C822FF"/>
		</linearGradient>
		<path class="st6" d="M244.44,397.87c0-22.94-17.63-41.83-40.06-43.86v-24.92c0-3.19-1.27-6.25-3.52-8.5l-35.36-35.36
			c-2.25-2.25-5.31-3.52-8.5-3.52H64.19c-6.64,0-12.02,5.38-12.02,12.02v160.23v20.03v4.01c0,6.64,5.38,12.02,12.02,12.02h128.18
			c6.64,0,12.02-5.38,12.02-12.02v-4.01v-20.03v-12.22C226.81,439.7,244.44,420.81,244.44,397.87z M190.71,321.76h-22.38
			c-2.21,0-4.01-1.79-4.01-4.01v-22.38L190.71,321.76z M192.37,481.99H64.19c-2.21,0-4.01-1.79-4.01-4.01v-4.01h136.19v4.01
			C196.37,480.2,194.58,481.99,192.37,481.99z M196.37,465.97H60.18v-12.02V293.72c0-2.21,1.79-4.01,4.01-4.01h92.13v28.04
			c0,6.64,5.38,12.02,12.02,12.02h28.04v24.24c-22.42,2.03-40.06,20.91-40.06,43.86c0,22.94,17.63,41.83,40.06,43.86v12.22V465.97z
			 M200.17,433.92c-19.88,0-36.05-16.17-36.05-36.05c0-19.88,16.17-36.05,36.05-36.05s36.05,16.17,36.05,36.05
			C236.22,417.75,220.05,433.92,200.17,433.92z"/>
	</g>
	<linearGradient id="SVGID_8_" gradientUnits="userSpaceOnUse" x1="223.6706" y1="15.0812" x2="223.6706" y2="153.6542">
		<stop  offset="0" style="stop-color:#1A6DFF"/>
		<stop  offset="1" style="stop-color:#C822FF"/>
	</linearGradient>
	<circle class="st7" cx="223.67" cy="93.22" r="9.62"/>
	<linearGradient id="SVGID_9_" gradientUnits="userSpaceOnUse" x1="182.9175" y1="32.0616" x2="182.9175" y2="170.6347">
		<stop  offset="0" style="stop-color:#1A6DFF"/>
		<stop  offset="1" style="stop-color:#C822FF"/>
	</linearGradient>
	<circle class="st8" cx="182.92" cy="110.2" r="9.62"/>
	<linearGradient id="SVGID_10_" gradientUnits="userSpaceOnUse" x1="147.8246" y1="62.6264" x2="147.8246" y2="201.1995">
		<stop  offset="0" style="stop-color:#1A6DFF"/>
		<stop  offset="1" style="stop-color:#C822FF"/>
	</linearGradient>
	<circle class="st9" cx="147.82" cy="140.77" r="9.62"/>
	<linearGradient id="SVGID_11_" gradientUnits="userSpaceOnUse" x1="120.6559" y1="98.8514" x2="120.6559" y2="237.4244">
		<stop  offset="0" style="stop-color:#1A6DFF"/>
		<stop  offset="1" style="stop-color:#C822FF"/>
	</linearGradient>
	<circle class="st10" cx="120.66" cy="176.99" r="9.62"/>
	<linearGradient id="SVGID_12_" gradientUnits="userSpaceOnUse" x1="100.2794" y1="145.2646" x2="100.2794" y2="283.8376">
		<stop  offset="0" style="stop-color:#1A6DFF"/>
		<stop  offset="1" style="stop-color:#C822FF"/>
	</linearGradient>
	<circle class="st11" cx="100.28" cy="223.41" r="9.62"/>
	<linearGradient id="SVGID_13_" gradientUnits="userSpaceOnUse" x1="278.008" y1="386.3868" x2="278.008" y2="524.9598">
		<stop  offset="0" style="stop-color:#1A6DFF"/>
		<stop  offset="1" style="stop-color:#C822FF"/>
	</linearGradient>
	<circle class="st12" cx="278.01" cy="464.53" r="9.62"/>
	<linearGradient id="SVGID_14_" gradientUnits="userSpaceOnUse" x1="323.2892" y1="386.3868" x2="323.2892" y2="524.9598">
		<stop  offset="0" style="stop-color:#1A6DFF"/>
		<stop  offset="1" style="stop-color:#C822FF"/>
	</linearGradient>
	<circle class="st13" cx="323.29" cy="464.53" r="9.62"/>
	<linearGradient id="SVGID_15_" gradientUnits="userSpaceOnUse" x1="373.0984" y1="369.4064" x2="373.0984" y2="507.9794">
		<stop  offset="0" style="stop-color:#1A6DFF"/>
		<stop  offset="1" style="stop-color:#C822FF"/>
	</linearGradient>
	<circle class="st14" cx="373.1" cy="447.55" r="9.62"/>
	<linearGradient id="SVGID_16_" gradientUnits="userSpaceOnUse" x1="414.9835" y1="343.3697" x2="414.9835" y2="481.9427">
		<stop  offset="0" style="stop-color:#1A6DFF"/>
		<stop  offset="1" style="stop-color:#C822FF"/>
	</linearGradient>
	<circle class="st15" cx="414.98" cy="421.51" r="9.62"/>
	<linearGradient id="SVGID_17_" gradientUnits="userSpaceOnUse" x1="445.5483" y1="311.6729" x2="445.5483" y2="450.2459">
		<stop  offset="0" style="stop-color:#1A6DFF"/>
		<stop  offset="1" style="stop-color:#C822FF"/>
	</linearGradient>
	<circle class="st16" cx="445.55" cy="389.82" r="9.62"/>
	<linearGradient id="SVGID_18_" gradientUnits="userSpaceOnUse" x1="465.9248" y1="275.4479" x2="465.9248" y2="414.021">
		<stop  offset="0" style="stop-color:#1A6DFF"/>
		<stop  offset="1" style="stop-color:#C822FF"/>
	</linearGradient>
	<circle class="st17" cx="465.92" cy="353.59" r="9.62"/>
	<linearGradient id="SVGID_19_" gradientUnits="userSpaceOnUse" x1="478.3772" y1="230.1668" x2="478.3772" y2="368.7398">
		<stop  offset="0" style="stop-color:#1A6DFF"/>
		<stop  offset="1" style="stop-color:#C822FF"/>
	</linearGradient>
	<circle class="st18" cx="478.38" cy="308.31" r="9.62"/>
</g>
<g id="Capa_2_1_">
	<g>
		
			<linearGradient id="SVGID_20_" gradientUnits="userSpaceOnUse" x1="377.2243" y1="1049.7866" x2="377.2243" y2="794.4196" gradientTransform="matrix(1 0 0 -1 59.16 1072.4)">
			<stop  offset="0" style="stop-color:#1A6DFF"/>
			<stop  offset="1" style="stop-color:#C822FF"/>
		</linearGradient>
		<path class="st19" d="M594.3,237.56V44.55c0-9.69-7.86-17.55-17.55-17.55h-251.5c-6.46,0-11.7,5.24-11.7,11.7v35.09h-11.7
			c-6.46,0-11.7,5.24-11.7,11.7v23.4h-5.85c-9.69,0-17.55,7.86-17.55,17.55V255.1c0,9.69,7.86,17.55,17.55,17.55h128.67h175.46
			c9.69,0,17.55-7.86,17.55-17.55v-17.55H594.3z M325.26,44.55c0-3.23,2.62-5.85,5.85-5.85h245.65c3.23,0,5.85,2.62,5.85,5.85
			v193.01H430.54v-11.7h140.37V62.09c0-6.46-5.24-11.7-11.7-11.7H348.65c-6.46,0-11.7,5.24-11.7,11.7v11.7h-11.7V44.55z
			 M412.99,73.79h-64.34v-11.7h210.56v152.07H430.54V91.34C430.54,81.65,422.68,73.79,412.99,73.79z M278.47,255.1V126.43
			c0-3.23,2.62-5.85,5.85-5.85h70.19c3.23,0,5.85,2.62,5.85,5.85V255.1c0,3.23-2.62,5.85-5.85,5.85h-70.19
			C281.08,260.95,278.47,258.33,278.47,255.1z M395.44,260.95h-24.47c0.66-1.84,1.08-3.79,1.08-5.85V126.43
			c0-9.69-7.86-17.55-17.55-17.55h-52.64V91.34c0-3.23,2.62-5.85,5.85-5.85h105.28c3.23,0,5.85,2.62,5.85,5.85V255.1
			c0,3.23-2.62,5.85-5.85,5.85H395.44z M594.3,255.1c0,3.23-2.62,5.85-5.85,5.85H429.46c0.66-1.84,1.08-3.79,1.08-5.85v-5.85H594.3
			V255.1z"/>
		
			<linearGradient id="SVGID_21_" gradientUnits="userSpaceOnUse" x1="467.0322" y1="1008.8447" x2="467.0322" y2="947.4333" gradientTransform="matrix(1 0 0 -1 59.16 1072.4)">
			<stop  offset="0" style="stop-color:#6DC7FF"/>
			<stop  offset="1" style="stop-color:#E6ABFF"/>
		</linearGradient>
		<path class="st20" d="M547.51,113.48V79.64c0-3.23-2.62-5.85-5.85-5.85h-33.84c-2.62,0-3.93,3.17-2.08,5.02l36.75,36.75
			C544.34,117.41,547.51,116.1,547.51,113.48z"/>
		<circle class="st21" cx="317.76" cy="236.9" r="11.7"/>
	</g>
</g>
</svg>
