<?xml version="1.0" encoding="utf-8"?>
<!-- Generator: Adobe Illustrator 24.2.0, SVG Export Plug-In . SVG Version: 6.00 Build 0)  -->
<svg version="1.1" id="Capa_1" focusable="false" xmlns="http://www.w3.org/2000/svg" xmlns:xlink="http://www.w3.org/1999/xlink"
	 x="0px" y="0px" viewBox="0 0 512 512" style="enable-background:new 0 0 512 512;" xml:space="preserve">
<style type="text/css">
	.st0{fill:url(#SVGID_1_);}
</style>
<linearGradient id="SVGID_1_" gradientUnits="userSpaceOnUse" x1="-17.0146" y1="512.4406" x2="511.2169" y2="-15.7909">
	<stop  offset="0.11" style="stop-color:#815CFF"/>
	<stop  offset="1" style="stop-color:#00FFE5"/>
</linearGradient>
<path class="st0" d="M332.8,320h38.4c6.4,0,12.8-6.4,12.8-12.8V172.8c0-6.4-6.4-12.8-12.8-12.8h-38.4c-6.4,0-12.8,6.4-12.8,12.8
	v134.4C320,313.6,326.4,320,332.8,320z M428.8,320h38.4c6.4,0,12.8-6.4,12.8-12.8V76.8c0-6.4-6.4-12.8-12.8-12.8h-38.4
	c-6.4,0-12.8,6.4-12.8,12.8v230.4C416,313.6,422.4,320,428.8,320z M140.8,320h38.4c6.4,0,12.8-6.4,12.8-12.8v-70.4
	c0-6.4-6.4-12.8-12.8-12.8h-38.4c-6.4,0-12.8,6.4-12.8,12.8v70.4C128,313.6,134.4,320,140.8,320z M236.8,320h38.4
	c6.4,0,12.8-6.4,12.8-12.8V108.8c0-6.4-6.4-12.8-12.8-12.8h-38.4c-6.4,0-12.8,6.4-12.8,12.8v198.4C224,313.6,230.4,320,236.8,320z
	 M496,378.5H64V48.2c0-9.6-7.2-17.4-16-17.4H16c-8.8,0-16,7.8-16,17.4v365C0,432.5,14.3,448,32,448h464c8.8,0,16-7.8,16-17.4v-34.8
	C512,386.3,504.8,378.5,496,378.5z"/>
</svg>
