<?xml version="1.0" encoding="utf-8"?>
<!-- Generator: Adobe Illustrator 24.3.0, SVG Export Plug-In . SVG Version: 6.00 Build 0)  -->
<svg version="1.1" id="Cloud" xmlns="http://www.w3.org/2000/svg" xmlns:xlink="http://www.w3.org/1999/xlink" x="0px" y="0px"
	 viewBox="0 0 100 100" style="enable-background:new 0 0 100 100;" xml:space="preserve">
<style type="text/css">
	.st0{fill:url(#SVGID_1_);}
	.st1{fill:url(#SVGID_2_);}
</style>
<linearGradient id="SVGID_1_" gradientUnits="userSpaceOnUse" x1="50" y1="89.0048" x2="50" y2="26.7654" gradientTransform="matrix(1 0 0 -1 0 102)">
	<stop  offset="0" style="stop-color:#1A6DFF"/>
	<stop  offset="1" style="stop-color:#C822FF"/>
</linearGradient>
<path class="st0" d="M53.1,57.8h6.2L51.3,46c-0.6-0.8-1.9-0.8-2.5,0l-8.1,11.9l6.2-0.1v15.5l-26.4,0c-8.6,0-15.5-7-15.5-15.5
	c0-7.8,5.8-14.3,13.4-15.4c-0.6-2.1-0.9-4.2-0.9-6.4c0-12,9.8-21.7,21.7-21.7c9.1,0,17.1,5.6,20.3,13.9c2.7-2,5.9-3.1,9.2-3.1
	c8.6,0,15.5,7,15.5,15.5c0,1.7-0.3,3.3-0.8,4.9C90,46.7,95,52.4,95,59.3c0,7.7-6.3,14-14,14l-28,0V57.8z M56.2,70.2h6.2l18.6,0
	c6,0,10.9-4.9,10.9-10.9c0-6-4.8-10.8-10.8-10.9l-2.5,0l1.1-2.2c0.9-1.7,1.3-3.6,1.3-5.5c0-6.9-5.6-12.4-12.4-12.4
	c-3.4,0-6.5,1.3-8.9,3.7l-1.9,2l-0.7-2.7c-2.1-8.2-9.5-13.9-18-13.9c-10.3,0-18.6,8.4-18.6,18.6c0,2.5,0.5,4.9,1.4,7.2l0.9,2.2h-2.3
	c-6.9,0-12.4,5.6-12.4,12.4s5.6,12.4,12.4,12.4h17.1l6.2,0v-9.3h-3.1c-1.1,0-2.2-0.6-2.7-1.6c-0.5-1-0.5-2.2,0.2-3.1l8.1-11.9
	c0.9-1.3,2.3-2,3.8-2c1.5,0,3,0.8,3.8,2l8.1,11.9c0.6,0.9,0.7,2.1,0.2,3.1c-0.5,1-1.6,1.6-2.7,1.6h-3.1V70.2z"/>
<linearGradient id="SVGID_2_" gradientUnits="userSpaceOnUse" x1="15.8313" y1="54.1355" x2="15.8313" y2="33.9301" gradientTransform="matrix(1 0 0 -1 0 102)">
	<stop  offset="0" style="stop-color:#6DC7FF"/>
	<stop  offset="1" style="stop-color:#E6ABFF"/>
</linearGradient>
<path class="st1" d="M20.5,67.1c-5.1,0-9.3-4.2-9.3-9.3s4.2-9.3,9.3-9.3V67.1z"/>
</svg>
