<?xml version="1.0" encoding="utf-8"?>
<!-- Generator: Adobe Illustrator 24.3.0, SVG Export Plug-In . SVG Version: 6.00 Build 0)  -->
<svg version="1.1" id="Capa_1" focusable="false" xmlns="http://www.w3.org/2000/svg" xmlns:xlink="http://www.w3.org/1999/xlink"
	 x="0px" y="0px" viewBox="0 0 1079.4 835.9" style="enable-background:new 0 0 1079.4 835.9;" xml:space="preserve">
<style type="text/css">
	.st0{fill:url(#SVGID_1_);}
	.st1{fill:#007AFF;}
</style>
<linearGradient id="SVGID_1_" gradientUnits="userSpaceOnUse" x1="308.8085" y1="-189.3463" x2="830.4788" y2="332.324" gradientTransform="matrix(1 0 0 -1 0 450)">
	<stop  offset="0" style="stop-color:#0037FF"/>
	<stop  offset="1" style="stop-color:#00CDB3"/>
</linearGradient>
<path class="st0" d="M863.7,257.9c5.4-14.2,8.5-29.7,8.5-45.8c0-70.2-57-127.2-127.2-127.2c-26.1,0-50.5,8-70.6,21.5
	C637.6,42.7,569.1,0,490.5,0c-117.1,0-212,94.9-212,212c0,3.6,0.1,7.2,0.3,10.7c-74.2,26.1-127.5,96.9-127.5,180.1
	c0,105.3,85.5,190.8,190.8,190.8h487.6c93.7,0,169.6-75.9,169.6-169.6C999.4,342,941,273.5,863.7,257.9z M672.6,339.2h-86.7v148.4
	c0,11.7-9.5,21.2-21.2,21.2h-63.6c-11.7,0-21.2-9.5-21.2-21.2V339.2h-86.7c-18.9,0-28.4-22.8-15-36.2l139.7-139.7
	c8.2-8.2,21.7-8.2,29.9,0L687.6,303C700.9,316.4,691.4,339.2,672.6,339.2L672.6,339.2z"/>
<g>
	<path class="st1" d="M0,705.6V773h44h44l25.4,22.6l25.2,22.6l0.8-22.6l0.8-22.6h29h29.2v-67.4v-67.4H99.2H0V705.6z M183.1,704.3
		v50.9h-29.2h-29.2v14.5v14.5l-14.8-14.5l-14.8-14.5H55.2H15.3v-50.9v-50.9h83.9h83.9V704.3z"/>
	<path class="st1" d="M1004.7,715.8v54.7h10.2h10.2v-12.2c0-8.9,1.3-13.7,4.8-16.8c4.3-4.1,4.8-3.8,8.4,1.5c2,3.3,6.4,10.7,9.4,16.8
		c5.3,10.4,5.8,10.7,18.3,10.7c7.1,0,12.5-1,12-2c-0.3-1-6.9-12.7-14.5-25.7l-13.7-23.7l15-15l14.8-15H1066
		c-13.5,0-14,0.3-27.2,14.5l-13.5,14.8l-0.3-28.7v-28.5h-10.2h-10.2V715.8z"/>
	<path class="st1" d="M226.4,673.8V684h16.5h16.5v43.2v43.2h11.4h11.4v-43.2V684h15.3h15.3v-10.2v-10.2h-43.2h-43.2V673.8z"/>
	<path class="st1" d="M330.6,717v53.4h10.2H351v-26.2c0-30,3.1-37.4,15.3-37.4c10.7,0,12.7,5.8,12.7,36.6v27h10.2h10.2v-32.8
		c0-30.5-0.5-33.6-5.8-39.7c-8.1-9.7-24.9-11.4-35.1-4.1l-7.4,5.6v-18.1v-17.8h-10.2h-10.2V717z"/>
	<path class="st1" d="M659.5,667.4c-15.8,6.9-23.9,30.8-14.5,44c5.3,7.6,14.5,12,32.8,15.8c18.1,3.6,26.7,8.4,26.7,15.3
		c0,12-28,17.8-38.2,7.6c-2.8-2.8-5.1-6.9-5.1-8.9c0-2.8-3.1-3.8-11.7-3.8c-11.4,0-11.7,0.3-9.9,6.9c3.8,16.5,14.2,25.2,32.3,27.7
		c19.3,2.8,33.8-0.8,44-10.2c7.9-7.4,8.9-9.9,8.9-20.9c0-20.6-5.6-25.2-39.2-32.8c-9.7-2.3-19.3-5.1-21.1-6.6
		c-9.2-7.6,1.3-20.1,16.5-20.1c6.4,0,10.7,2,15.8,7.6c5.3,5.8,9.4,7.6,16.3,7.6c10.4,0,11.4-3.3,5.3-15
		C710.6,666.4,679.1,658.8,659.5,667.4z"/>
	<path class="st1" d="M462.9,729.8v40.7h9.9h9.9l1-28.2c0.8-24.4,1.5-28.7,5.6-31.8c7.4-5.3,16-4.3,20.3,2
		c3.1,4.3,4.1,12.2,4.1,31.8v26.2h10.2h10.2v-32.8c0-30.8-0.5-33.6-5.8-39.7c-8.4-9.7-27.2-11.7-37.6-4.1c-7.4,5.3-7.4,5.3-7.4,0.3
		c0-4.3-1.5-5.1-10.2-5.1h-10.2V729.8z"/>
	<path class="st1" d="M567.2,692.4c-22.1,11.2-26.5,52.9-7.1,71c6.1,5.6,9.9,7.1,19.6,7.1c6.6,0,14.2-1.8,17.5-4.1
		c5.3-3.8,5.6-3.6,5.6,3.8c0,14.8-15.5,22.9-27,14.2c-4.3-3.3-26.5-5.6-26.5-2.5c0,0.5,1.3,3.8,2.8,7.4c6.1,13,37.9,18.6,55.7,9.7
		c15.5-7.6,17.8-16,17.8-66.1v-43.7h-11.4c-10.2,0-11.4,0.8-11.4,5.6c0,3.3-0.8,4.6-2,3.1C595.2,689.3,578.4,686.8,567.2,692.4z
		 M596.2,712.2c5.3,4.3,6.6,7.4,6.6,17.3c0,15.8-5.3,23.1-16.5,23.1c-10.9,0-16.5-7.4-16.5-22.4c0-8.1,1.5-12.5,6.4-17
		C583.5,705.6,587.5,705.3,596.2,712.2z"/>
	<path class="st1" d="M422.2,731v39.4h11.4h11.4V731v-39.4h-11.4h-11.4V731z"/>
	<path class="st1" d="M740.1,746.3V801h10.2h10.2v-19.6c0-19.1,0-19.3,5.1-14.8c7.6,6.9,25.2,7.6,35.1,1.3
		c11.7-7.4,16.5-20.1,15.3-41.2c-0.8-15.3-1.8-18.3-8.6-25.2c-10.7-10.4-25.4-12.5-37.9-5.3c-8.6,5.3-8.9,5.3-8.9,0.5
		c0-4.3-1.8-5.1-10.2-5.1h-10.2V746.3z M790.8,716c11.2,14.2,3.3,39.2-12.5,39.2c-11.2,0-18.6-10.9-17-24.9
		C763.5,710.2,779.8,702.3,790.8,716z"/>
	<rect x="422.2" y="663.6" class="st1" width="22.9" height="18.5"/>
	<path class="st1" d="M882.1,751.9c-6.1,5.6-18.6,5.3-24.9-0.5c-10.7-9.7-6.9-11.4,23.1-11.4h28.5l-1.3-13c-0.8-7.1-3.6-16-6.4-19.6
		c-10.9-15-34.6-20.1-51.6-10.9c-13.2,6.9-19.1,18.8-18.8,37.9c0,11.7,1.5,17.8,5.1,22.6c11.2,15,35.6,20.3,53.4,12
		c9.2-4.3,16.3-12.5,16.3-18.1C905.5,746,887.7,746.8,882.1,751.9z M871.2,705.7c20.9,0,20.3,19.2,20.3,19.2s-39.6,0-40.7,0
		C850.9,725,848.1,705.8,871.2,705.7z"/>
	<path class="st1" d="M989.4,764.1c-1.5-1-2.5-14.2-2.5-31.5c0-37.4-1.3-39.2-29-40.4c-16.5-1-19.1-0.5-25.2,4.8
		c-3.6,3.3-7.4,9.2-8.4,13c-1.5,6.9-1.3,7.1,8.4,7.1c6.9,0,10.7-1.5,13-5.1c4.1-6.6,17.3-6.9,20.6-0.3c3.6,6.6,0,8.9-18.8,12.5
		c-18.6,3.6-26.7,11.4-26.7,25.4c0.3,20.6,20.9,30,40.2,18.3c8.1-5.1,8.1-5.1,8.1,0c0,4.3,1.8,5.1,11.4,5.1c8.4,0,11.4-1,11.4-3.6
		C991.9,767.4,990.9,764.9,989.4,764.1z M965.3,750.1c-0.7,1.4-4.6,3.1-9.3,4.9c-6,2.3-11.3,1.5-11.3,1.5s-5.4-0.7-6-7.8
		c-0.2-2.3-0.4-5.5,2-8c0.2-0.2,2.3-2.2,2.5-2.2l18.1-5.4c1.5-0.4,4.4,1,4.9,2.4l0.9,10.5C967.1,747.9,965.4,749.8,965.3,750.1z"/>
</g>
</svg>
