<?xml version="1.0" encoding="utf-8"?>
<!-- Generator: Adobe Illustrator 24.2.0, SVG Export Plug-In . SVG Version: 6.00 Build 0)  -->
<svg version="1.1" id="Capa_1" xmlns="http://www.w3.org/2000/svg" xmlns:xlink="http://www.w3.org/1999/xlink" x="0px" y="0px"
	 viewBox="0 0 24 24" style="enable-background:new 0 0 24 24;" xml:space="preserve">
<style type="text/css">
	.st0{fill:none;}
	.st1{fill:url(#svg_1_1_);}
</style>
<g>
	<rect id="canvas_background" x="-1" y="-1" class="st0" width="802" height="602"/>
</g>
<g>
	<linearGradient id="svg_1_1_" gradientUnits="userSpaceOnUse" x1="12" y1="2" x2="12" y2="22">
		<stop  offset="0" style="stop-color:#00CDFF"/>
		<stop  offset="0.2872" style="stop-color:#00A3FF"/>
		<stop  offset="0.5989" style="stop-color:#007BFF"/>
		<stop  offset="0.8475" style="stop-color:#0063FF"/>
		<stop  offset="1" style="stop-color:#005AFF"/>
	</linearGradient>
	<path id="svg_1" class="st1" d="M18.4,2.6c1.6,0,3,1.4,3,3c0,1.7-1.4,3-3,3c-1.6,0-3-1.3-3-3c0-0.3,0.1-0.6,0.1-0.8
		C14.4,4.3,13.3,4,12,4c-4.4,0-8,3.6-8,8l0,0.8l-2,0.2L2,12C2,6.5,6.5,2,12,2c1.7,0,3.3,0.4,4.7,1.2C17.2,2.8,17.7,2.6,18.4,2.6
		 M18.4,4.6c-0.6,0-1,0.4-1,1s0.4,1,1,1c0.6,0,1-0.4,1-1C19.4,5.1,18.9,4.6,18.4,4.6 M5.6,15.4c1.7,0,3,1.4,3,3
		c0,0.3-0.1,0.6-0.1,0.8C9.6,19.7,10.8,20,12,20c4.4,0,8-3.6,8-8l0-0.8l2-0.2l0,1.1c0,5.5-4.5,10-10,10c-1.7,0-3.3-0.4-4.7-1.2
		c-0.5,0.3-1.1,0.5-1.7,0.5c-1.6,0-3-1.4-3-3C2.6,16.7,4,15.4,5.6,15.4 M5.6,17.4c-0.6,0-1,0.5-1,1c0,0.6,0.4,1,1,1c0.6,0,1-0.4,1-1
		S6.2,17.4,5.6,17.4 M12,8c2.2,0,4,1.8,4,4c0,2.2-1.8,4-4,4s-4-1.8-4-4S9.8,8,12,8z"/>
</g>
</svg>
