<?xml version="1.0" encoding="utf-8"?>
<!-- Generator: Adobe Illustrator 24.2.0, SVG Export Plug-In . SVG Version: 6.00 Build 0)  -->
<svg version="1.1" id="Capa_1" xmlns="http://www.w3.org/2000/svg" xmlns:xlink="http://www.w3.org/1999/xlink" x="0px" y="0px"
	 viewBox="0 0 24 24" style="enable-background:new 0 0 24 24;" xml:space="preserve">
<style type="text/css">
	.st0{fill:none;}
	.st1{fill:url(#svg_1_1_);}
</style>
<g>
	<rect id="canvas_background" x="-1" y="-1" class="st0" width="802" height="602"/>
</g>
<g>
	<linearGradient id="svg_1_1_" gradientUnits="userSpaceOnUse" x1="12" y1="2" x2="12" y2="22.0003">
		<stop  offset="0" style="stop-color:#FF0000"/>
		<stop  offset="1" style="stop-color:#8C00FF"/>
	</linearGradient>
	<path id="svg_1" class="st1" d="M15,13V5c0-1.7-1.3-3-3-3S9,3.3,9,5v8c-2.2,1.7-2.7,4.8-1,7s4.8,2.7,7,1s2.7-4.8,1-7
		C15.7,13.6,15.4,13.3,15,13 M12,4c0.6,0,1,0.4,1,1v3h-2V5C11,4.4,11.4,4,12,4z"/>
</g>
</svg>
