<?xml version="1.0" encoding="utf-8"?>
<!-- Generator: Adobe Illustrator 24.3.0, SVG Export Plug-In . SVG Version: 6.00 Build 0)  -->
<svg version="1.1" id="Capa_1" xmlns="http://www.w3.org/2000/svg" xmlns:xlink="http://www.w3.org/1999/xlink" x="0px" y="0px"
	 viewBox="0 0 100 100" style="enable-background:new 0 0 100 100;" xml:space="preserve">
<style type="text/css">
	.st0{fill:url(#SVGID_1_);}
</style>
<linearGradient id="SVGID_1_" gradientUnits="userSpaceOnUse" x1="18.2" y1="1059.8" x2="81.8" y2="996.2" gradientTransform="matrix(1 0 0 1 0 -978)">
	<stop  offset="0" style="stop-color:#00008C"/>
	<stop  offset="1" style="stop-color:#00AAFF"/>
</linearGradient>
<path class="st0" d="M50,5C25.2,5,5,25.2,5,50s20.2,45,45,45s45-20.2,45-45S74.8,5,50,5z M50,14c19.9,0,36,16.1,36,36S69.9,86,50,86
	S14,69.9,14,50S30.1,14,50,14z M47.5,28.9c-8.1,0.9-11.3,7.2-12.2,11.4c-0.2,1.1,0.6,2.1,1.8,2.1H42c0.9,0,1.7-0.7,1.8-1.6
	c0.3-2.2,1.4-5.7,5.8-5.7c4.5,0,5.3,4.1,5.3,5.9c0,5.3-6.5,10.3-18.3,23.4c-0.3,0.3-0.5,0.8-0.5,1.2v3.3c0,1,0.8,1.8,1.8,1.8h24.7
	c1,0,1.8-0.8,1.8-1.8v-2.7c0-1-0.8-1.8-1.8-1.8H50.7c-1.6,0-2.4-1.9-1.3-3.1c9.5-9.6,12.6-15,12.6-21.2c0-5-1.2-11.2-12.5-11.2
	C48.9,28.9,48.1,28.8,47.5,28.9z"/>
</svg>
