<?xml version="1.0" encoding="utf-8"?>
<!-- Generator: Adobe Illustrator 24.3.0, SVG Export Plug-In . SVG Version: 6.00 Build 0)  -->
<svg version="1.1" id="Capa_1" xmlns="http://www.w3.org/2000/svg" xmlns:xlink="http://www.w3.org/1999/xlink" x="0px" y="0px"
	 viewBox="0 0 100 100" style="enable-background:new 0 0 100 100;" xml:space="preserve">
<style type="text/css">
	.st0{fill:url(#SVGID_1_);}
</style>
<linearGradient id="SVGID_1_" gradientUnits="userSpaceOnUse" x1="18.2" y1="1059.8" x2="81.8" y2="996.2" gradientTransform="matrix(1 0 0 1 0 -978)">
	<stop  offset="0" style="stop-color:#00008C"/>
	<stop  offset="1" style="stop-color:#00AAFF"/>
</linearGradient>
<path class="st0" d="M50,5C25.2,5,5,25.2,5,50s20.2,45,45,45s45-20.2,45-45S74.8,5,50,5z M50,14c19.9,0,36,16.1,36,36S69.9,86,50,86
	S14,69.9,14,50S30.1,14,50,14z M44.7,48.8v0.8c0,1.4,1.1,2.5,2.5,2.5h2c0.9,0,6.8,0,6.8,6.3c0,0.9-0.5,5.8-6.3,5.8
	c-3.8,0-5.6-2-6.2-3.6c-0.3-1-1.3-1.7-2.4-1.7h-3.2c-1.6,0-2.9,1.5-2.5,3.1c1.1,4.2,5.3,9,13.8,9c6.3,0,14.8-2.6,14.8-12.1
	c0-4.2-1.7-6.6-3.5-8c-1.2-1-1.4-2.8-0.2-3.9c1.6-1.4,3.2-3.7,3.2-6.9c-0.1-3.2-1.4-11.9-14-11.9c-4.6,0-11.1,2.2-13,7.8
	c-0.6,1.7,0.6,3.4,2.4,3.4h3.8c1,0,1.9-0.6,2.3-1.6C45.6,36.6,47,35,50,35c1.4,0,5.9,0.5,5.9,5.5c0,5.4-4.1,5.8-6.3,5.8h-2.4
	C45.8,46.3,44.7,47.4,44.7,48.8z"/>
</svg>
