<svg id="Capa_1" data-name="Capa 1" xmlns="http://www.w3.org/2000/svg" xmlns:xlink="http://www.w3.org/1999/xlink" viewBox="0 0 569 1185"><defs><style>.cls-1,.cls-6{fill:#fff;}.cls-1,.cls-10,.cls-9{stroke-miterlimit:10;}.cls-1{stroke-width:5px;stroke:url(#Degradado_sin_nombre);}.cls-2{isolation:isolate;}.cls-3{fill:#2196f2;}.cls-4{fill:#3f51b5;}.cls-5{fill:#f4f4f4;}.cls-7{fill:url(#Degradado_sin_nombre_2);}.cls-8{fill:url(#Degradado_sin_nombre_3);}.cls-10,.cls-9{fill:none;}.cls-9{stroke:#fff;stroke-width:3px;}.cls-10{stroke:red;stroke-width:10px;}</style><linearGradient id="Degradado_sin_nombre" x1="91" y1="392.5" x2="660" y2="392.5" gradientTransform="translate(0 254)" gradientUnits="userSpaceOnUse"><stop offset="0" stop-color="#2196f2"/><stop offset="1" stop-color="#3f51b5"/></linearGradient><linearGradient id="Degradado_sin_nombre_2" x1="93" y1="934" x2="657" y2="934" xlink:href="#Degradado_sin_nombre"/><linearGradient id="Degradado_sin_nombre_3" x1="93" y1="910.5" x2="657" y2="910.5" gradientTransform="translate(-91 191)" xlink:href="#Degradado_sin_nombre"/></defs><path class="cls-1" d="M606.13,1227.5H144.87a51.53,51.53,0,0,1-51.37-51.37V116.87A51.53,51.53,0,0,1,144.87,65.5H606.13a51.53,51.53,0,0,1,51.37,51.37V1176.13A51.53,51.53,0,0,1,606.13,1227.5Z" transform="translate(-91 -63)"/><g class="cls-2"><path d="M134.77,179.92a11.27,11.27,0,0,1-3.35-.49A9.58,9.58,0,0,1,128.5,178a10.28,10.28,0,0,1-2.32-2.42,11.57,11.57,0,0,1-1.56-3.32l4.83-1.9a7.28,7.28,0,0,0,1.86,3.4,4.67,4.67,0,0,0,3.49,1.35,5.56,5.56,0,0,0,1.54-.21,4.38,4.38,0,0,0,1.33-.61,2.73,2.73,0,0,0,.93-1,2.77,2.77,0,0,0,.35-1.4,3.35,3.35,0,0,0-.27-1.37,3.29,3.29,0,0,0-.89-1.14,8.32,8.32,0,0,0-1.64-1,25.63,25.63,0,0,0-2.49-1l-1.67-.61a12.2,12.2,0,0,1-2.22-1,9.66,9.66,0,0,1-2-1.55,7.68,7.68,0,0,1-1.5-2.15,6.28,6.28,0,0,1-.59-2.79,7.31,7.31,0,0,1,.62-3,7.44,7.44,0,0,1,1.79-2.43,8.46,8.46,0,0,1,2.77-1.63,10.52,10.52,0,0,1,3.59-.59,10.28,10.28,0,0,1,3.56.55,8.69,8.69,0,0,1,2.54,1.41,7.63,7.63,0,0,1,1.69,1.88,8.57,8.57,0,0,1,.95,1.93l-4.52,1.9a4.79,4.79,0,0,0-1.38-2,4,4,0,0,0-2.76-.91,4.67,4.67,0,0,0-2.77.78,2.38,2.38,0,0,0-1.11,2,2.58,2.58,0,0,0,1.07,2.07,11.72,11.72,0,0,0,3.38,1.66l1.71.57a19,19,0,0,1,3,1.31,9.21,9.21,0,0,1,2.32,1.76,7.2,7.2,0,0,1,1.48,2.34,8.1,8.1,0,0,1,.52,3,7.46,7.46,0,0,1-.86,3.67A7.89,7.89,0,0,1,141,178a9.5,9.5,0,0,1-3,1.48A11.41,11.41,0,0,1,134.77,179.92Z" transform="translate(-91 -63)"/><path d="M150.46,158.19a3.22,3.22,0,0,1-1.23-.25,3,3,0,0,1-1-.68,3.27,3.27,0,0,1-.68-1,3.28,3.28,0,0,1,0-2.51,3.27,3.27,0,0,1,.68-1,3.27,3.27,0,0,1,2.26-.93,3.13,3.13,0,0,1,2.28.93,3.18,3.18,0,0,1,0,4.53A3.13,3.13,0,0,1,150.46,158.19ZM148,179.31V160.69h5v18.62Z" transform="translate(-91 -63)"/><path d="M157.53,160.69h4.67v2.44h.31a6.47,6.47,0,0,1,2.37-2.21,6.8,6.8,0,0,1,3.33-.83,6.27,6.27,0,0,1,3.57,1,5.57,5.57,0,0,1,2.05,2.44,7.63,7.63,0,0,1,2.47-2.42,7.13,7.13,0,0,1,3.88-1,7.27,7.27,0,0,1,3,.55,5.36,5.36,0,0,1,2.07,1.54,6.69,6.69,0,0,1,1.24,2.37,10.76,10.76,0,0,1,.41,3v11.74h-5V168.48q0-3.79-3.12-3.8a3.47,3.47,0,0,0-1.75.44,3.87,3.87,0,0,0-1.27,1.18,5.77,5.77,0,0,0-.8,1.77,8.18,8.18,0,0,0-.28,2.2v9h-5V168.48q0-3.79-3.27-3.8a3.18,3.18,0,0,0-1.67.44,3.92,3.92,0,0,0-1.22,1.18,5.73,5.73,0,0,0-.76,1.77,8.62,8.62,0,0,0-.26,2.2v9h-5Z" transform="translate(-91 -63)"/><path d="M203.85,176.88h-.3a6.4,6.4,0,0,1-2.36,2.23,7,7,0,0,1-3.38.81,6.35,6.35,0,0,1-5.27-2.16,9,9,0,0,1-1.72-5.78V160.69h5v10.68a4.28,4.28,0,0,0,.9,3,3.37,3.37,0,0,0,2.6,1,3.63,3.63,0,0,0,1.8-.43,4.17,4.17,0,0,0,1.33-1.18,5.27,5.27,0,0,0,.84-1.75,7.87,7.87,0,0,0,.29-2.15v-9.12h5v18.62h-4.67Z" transform="translate(-91 -63)"/><path d="M212.78,179.31v-27.2h5v27.2Z" transform="translate(-91 -63)"/><path d="M233.3,177.34H233a8.43,8.43,0,0,1-2.11,1.82,6,6,0,0,1-3.18.76,7.8,7.8,0,0,1-2.71-.47,7.37,7.37,0,0,1-2.23-1.31,6,6,0,0,1-1.48-2,6.23,6.23,0,0,1-.53-2.58,5.74,5.74,0,0,1,2.17-4.6,7,7,0,0,1,2.41-1.27,10,10,0,0,1,3-.44,13,13,0,0,1,3,.29,15.09,15.09,0,0,1,1.94.58v-.57a3,3,0,0,0-1.18-2.45,4.47,4.47,0,0,0-2.92-1,5.47,5.47,0,0,0-4.37,2.17l-3.61-2.47a9.78,9.78,0,0,1,8.09-3.72c2.89,0,5.09.67,6.61,2s2.28,3.36,2.28,6v11.17h-4.9Zm0-5.59a9.81,9.81,0,0,0-1.81-.66,7.63,7.63,0,0,0-2-.25,4.27,4.27,0,0,0-2.75.78,2.37,2.37,0,0,0-1,1.92,2.14,2.14,0,0,0,.93,1.82,3.5,3.5,0,0,0,2.15.69,4.58,4.58,0,0,0,1.82-.36,4.48,4.48,0,0,0,1.42-.95,4.24,4.24,0,0,0,.92-1.37A4.29,4.29,0,0,0,233.3,171.75Z" transform="translate(-91 -63)"/><path d="M259.63,174.56a10.29,10.29,0,0,1-3.4,3.86,9.39,9.39,0,0,1-5.45,1.5,10.24,10.24,0,0,1-4-.74,9.16,9.16,0,0,1-3.12-2.07,9.66,9.66,0,0,1-2.05-3.13,10.48,10.48,0,0,1-.74-4,10.61,10.61,0,0,1,.74-4,9.19,9.19,0,0,1,5.17-5.18,10.24,10.24,0,0,1,4-.74,9.5,9.5,0,0,1,5.43,1.48,8.76,8.76,0,0,1,3.23,3.84l-4.56,1.9a4.89,4.89,0,0,0-1.65-2,4.51,4.51,0,0,0-2.53-.67,4.65,4.65,0,0,0-1.86.38,5,5,0,0,0-1.54,1.07,4.79,4.79,0,0,0-1,1.67,6.59,6.59,0,0,0,0,4.41,4.88,4.88,0,0,0,1,1.67,4.77,4.77,0,0,0,1.54,1.06,4.49,4.49,0,0,0,1.86.38,4.72,4.72,0,0,0,2.64-.7,4.82,4.82,0,0,0,1.73-2Z" transform="translate(-91 -63)"/><path d="M265.45,158.19a3.27,3.27,0,0,1-1.24-.25,3.09,3.09,0,0,1-1-.68,3.49,3.49,0,0,1-.69-1,3.4,3.4,0,0,1,0-2.51,3.49,3.49,0,0,1,.69-1,3.22,3.22,0,0,1,2.26-.93,3.17,3.17,0,0,1,2.28.93,3.18,3.18,0,0,1,0,4.53A3.17,3.17,0,0,1,265.45,158.19ZM263,179.31V160.69h5v18.62Z" transform="translate(-91 -63)"/><path d="M281.14,160.09a10.21,10.21,0,0,1,4,.74,9.19,9.19,0,0,1,5.17,5.18,11.13,11.13,0,0,1,0,8,9.29,9.29,0,0,1-2,3.14,9.41,9.41,0,0,1-3.12,2.05,11,11,0,0,1-7.94,0A9.17,9.17,0,0,1,272,174a11.13,11.13,0,0,1,0-8,9.19,9.19,0,0,1,5.17-5.18A10.24,10.24,0,0,1,281.14,160.09Zm0,15.23A4.86,4.86,0,0,0,283,175a4.67,4.67,0,0,0,1.58-1,4.82,4.82,0,0,0,1.08-1.67,6.5,6.5,0,0,0,0-4.49,4.82,4.82,0,0,0-1.08-1.67,4.53,4.53,0,0,0-1.58-1,4.81,4.81,0,0,0-3.7,0,4.74,4.74,0,0,0-1.56,1,5,5,0,0,0-1.08,1.67,6.5,6.5,0,0,0,0,4.49,5,5,0,0,0,1.08,1.67,4.9,4.9,0,0,0,1.56,1A4.82,4.82,0,0,0,281.14,175.32ZM279,157l1.59-5.17h5.82L283,157Z" transform="translate(-91 -63)"/><path d="M298.51,163.13h.3a6.32,6.32,0,0,1,2.36-2.23,6.92,6.92,0,0,1,3.38-.81,7.8,7.8,0,0,1,3.08.57,5.73,5.73,0,0,1,2.18,1.61,7.1,7.1,0,0,1,1.29,2.51,11,11,0,0,1,.44,3.25v11.28h-5V168.64a4.28,4.28,0,0,0-.89-3,3.39,3.39,0,0,0-2.6-1,3.65,3.65,0,0,0-1.81.44,4.28,4.28,0,0,0-1.33,1.18,5.25,5.25,0,0,0-.83,1.75,7.79,7.79,0,0,0-.29,2.14v9.12h-5V160.69h4.68Z" transform="translate(-91 -63)"/><path d="M337.87,177.07h-.3a5.7,5.7,0,0,1-2.13,2,7.09,7.09,0,0,1-3.57.83,8,8,0,0,1-3.4-.74,9,9,0,0,1-2.85-2.05,9.72,9.72,0,0,1-2-3.14,11.42,11.42,0,0,1,0-8,9.78,9.78,0,0,1,2-3.13,9,9,0,0,1,2.85-2,8,8,0,0,1,3.4-.74,7.09,7.09,0,0,1,3.57.83,5.7,5.7,0,0,1,2.13,2h.3l-.3-2.66v-8.17h5v27.2h-4.68Zm-5-1.75a5,5,0,0,0,1.88-.36,4.73,4.73,0,0,0,1.57-1,5.19,5.19,0,0,0,1.11-1.67,6.35,6.35,0,0,0,0-4.49,5.19,5.19,0,0,0-1.11-1.67,4.58,4.58,0,0,0-1.57-1,4.85,4.85,0,0,0-1.88-.37,4.78,4.78,0,0,0-1.88.38,5,5,0,0,0-2.68,2.74,6,6,0,0,0,0,4.41,5,5,0,0,0,1.1,1.67,4.73,4.73,0,0,0,1.58,1.06A4.61,4.61,0,0,0,332.9,175.32Z" transform="translate(-91 -63)"/><path d="M364.25,174.83a10.52,10.52,0,0,1-3.48,3.69,9.74,9.74,0,0,1-5.34,1.4,10.11,10.11,0,0,1-3.93-.74,9.37,9.37,0,0,1-5.21-5.2,10.48,10.48,0,0,1-.74-4,10.16,10.16,0,0,1,.72-3.81,9.55,9.55,0,0,1,2-3.16,9.9,9.9,0,0,1,3-2.15,9.41,9.41,0,0,1,3.9-.79,10.07,10.07,0,0,1,4,.74,8.15,8.15,0,0,1,2.93,2,8.8,8.8,0,0,1,1.78,3.1,11.81,11.81,0,0,1,.61,3.87v.46a2.12,2.12,0,0,0,0,.42,2.48,2.48,0,0,0,0,.41h-14a5.14,5.14,0,0,0,.63,2,4.76,4.76,0,0,0,1.18,1.37,4.63,4.63,0,0,0,1.54.8,6.09,6.09,0,0,0,1.71.24,4.92,4.92,0,0,0,2.83-.77,5.8,5.8,0,0,0,1.76-2Zm-4.53-7.22a3.05,3.05,0,0,0-.32-1.1,3.73,3.73,0,0,0-.84-1.14,4.26,4.26,0,0,0-1.36-.88,5.25,5.25,0,0,0-2-.34,4.61,4.61,0,0,0-2.81.91,4.84,4.84,0,0,0-1.71,2.55Z" transform="translate(-91 -63)"/><path d="M376.71,152.11h5.05l8.33,14.4h.3l8.32-14.4h5.09v27.2h-5.09V165.9l.31-4.56h-.31l-6.92,12.2h-3.07l-7-12.2h-.3l.3,4.56v13.41h-5.05Z" transform="translate(-91 -63)"/><path d="M426.3,174.83a10.43,10.43,0,0,1-3.48,3.69,9.69,9.69,0,0,1-5.34,1.4,10.11,10.11,0,0,1-3.93-.74,9.3,9.3,0,0,1-3.13-2.07,9.58,9.58,0,0,1-2.08-3.13,10.48,10.48,0,0,1-.74-4,10,10,0,0,1,.73-3.81,9.69,9.69,0,0,1,2-3.16,9.83,9.83,0,0,1,3.06-2.15,9.39,9.39,0,0,1,3.89-.79,10,10,0,0,1,4,.74,8.15,8.15,0,0,1,2.93,2A9,9,0,0,1,426,166a12.07,12.07,0,0,1,.6,3.87v.46a3.19,3.19,0,0,0,0,.42,1.73,1.73,0,0,0,0,.41h-14a5.32,5.32,0,0,0,.62,2,4.76,4.76,0,0,0,1.18,1.37,4.63,4.63,0,0,0,1.54.8,6.19,6.19,0,0,0,1.71.24,4.92,4.92,0,0,0,2.83-.77,5.72,5.72,0,0,0,1.77-2Zm-4.52-7.22a3.52,3.52,0,0,0-.32-1.1,3.91,3.91,0,0,0-.84-1.14,4.42,4.42,0,0,0-1.37-.88,5.21,5.21,0,0,0-2-.34,4.61,4.61,0,0,0-2.81.91,4.84,4.84,0,0,0-1.71,2.55Z" transform="translate(-91 -63)"/><path d="M443.86,177.07h-.31a5.7,5.7,0,0,1-2.13,2,7.09,7.09,0,0,1-3.57.83,8,8,0,0,1-3.4-.74,9,9,0,0,1-2.85-2.05,9.72,9.72,0,0,1-2-3.14,11.42,11.42,0,0,1,0-8,9.78,9.78,0,0,1,2-3.13,9,9,0,0,1,2.85-2,8,8,0,0,1,3.4-.74,7.09,7.09,0,0,1,3.57.83,5.7,5.7,0,0,1,2.13,2h.31l-.31-2.66v-8.17h5v27.2h-4.67Zm-5-1.75a5,5,0,0,0,1.88-.36,4.73,4.73,0,0,0,1.57-1,5.19,5.19,0,0,0,1.11-1.67,6.21,6.21,0,0,0,0-4.49,5.19,5.19,0,0,0-1.11-1.67,4.58,4.58,0,0,0-1.57-1,4.9,4.9,0,0,0-3.76,0,5,5,0,0,0-2.68,2.74,6,6,0,0,0,0,4.41,5.17,5.17,0,0,0,1.1,1.67,4.83,4.83,0,0,0,1.58,1.06A4.61,4.61,0,0,0,438.88,175.32Z" transform="translate(-91 -63)"/><path d="M455.56,158.19a3.31,3.31,0,0,1-1.24-.25,3.09,3.09,0,0,1-1-.68,3.49,3.49,0,0,1-.69-1,3.4,3.4,0,0,1,0-2.51,3.49,3.49,0,0,1,.69-1,3.09,3.09,0,0,1,1-.68,3.24,3.24,0,0,1,3.52.68,3.18,3.18,0,0,1,0,4.53A3.13,3.13,0,0,1,455.56,158.19Zm-2.47,21.12V160.69h5v18.62Z" transform="translate(-91 -63)"/><path d="M480.11,174.56a10.46,10.46,0,0,1-3.4,3.86,9.44,9.44,0,0,1-5.46,1.5,10.24,10.24,0,0,1-4-.74,9.11,9.11,0,0,1-3.11-2.07,9.68,9.68,0,0,1-2.06-3.13,10.48,10.48,0,0,1-.74-4,10.61,10.61,0,0,1,.74-4,9.27,9.27,0,0,1,5.17-5.18,10.24,10.24,0,0,1,4-.74,9.51,9.51,0,0,1,5.44,1.48,8.83,8.83,0,0,1,3.23,3.84l-4.56,1.9a4.83,4.83,0,0,0-1.66-2,4.5,4.5,0,0,0-2.52-.67,4.74,4.74,0,0,0-1.87.38,4.81,4.81,0,0,0-1.53,1.07,4.66,4.66,0,0,0-1,1.67,6.59,6.59,0,0,0,0,4.41,4.75,4.75,0,0,0,1,1.67,4.62,4.62,0,0,0,1.53,1.06,4.57,4.57,0,0,0,1.87.38,4.75,4.75,0,0,0,2.64-.7,4.89,4.89,0,0,0,1.73-2Z" transform="translate(-91 -63)"/><path d="M485.92,158.19a3.22,3.22,0,0,1-1.23-.25,3,3,0,0,1-1-.68,3.27,3.27,0,0,1-.68-1,3.28,3.28,0,0,1,0-2.51,3.27,3.27,0,0,1,.68-1,3.27,3.27,0,0,1,2.26-.93,3.13,3.13,0,0,1,2.28.93,3.18,3.18,0,0,1,0,4.53A3.13,3.13,0,0,1,485.92,158.19Zm-2.47,21.12V160.69h5v18.62Z" transform="translate(-91 -63)"/><path d="M501.61,160.09a10.3,10.3,0,0,1,4,.74,9.36,9.36,0,0,1,3.11,2,9.2,9.2,0,0,1,2.05,3.13,11.13,11.13,0,0,1,0,8,9.15,9.15,0,0,1-2.05,3.14,9.36,9.36,0,0,1-3.11,2.05,11,11,0,0,1-7.95,0,9.36,9.36,0,0,1-3.11-2.05,9.15,9.15,0,0,1-2-3.14,11,11,0,0,1,0-8,9.2,9.2,0,0,1,2-3.13,9.36,9.36,0,0,1,3.11-2A10.28,10.28,0,0,1,501.61,160.09Zm0,15.23a4.91,4.91,0,0,0,1.85-.36,4.73,4.73,0,0,0,1.57-1,5,5,0,0,0,1.09-1.67,6.5,6.5,0,0,0,0-4.49,5,5,0,0,0-1.09-1.67,4.58,4.58,0,0,0-1.57-1,4.74,4.74,0,0,0-1.85-.37,4.68,4.68,0,0,0-1.86.37,4.74,4.74,0,0,0-1.56,1,5.12,5.12,0,0,0-1.08,1.67,6.5,6.5,0,0,0,0,4.49,5.12,5.12,0,0,0,1.08,1.67,4.78,4.78,0,0,0,3.42,1.4Z" transform="translate(-91 -63)"/><path d="M519,163.13h.3a6.4,6.4,0,0,1,2.36-2.23,7,7,0,0,1,3.38-.81,7.76,7.76,0,0,1,3.08.57,5.76,5.76,0,0,1,2.19,1.61,7.1,7.1,0,0,1,1.29,2.51A11.36,11.36,0,0,1,532,168v11.28h-5V168.64a4.28,4.28,0,0,0-.9-3,3.37,3.37,0,0,0-2.6-1,3.61,3.61,0,0,0-1.8.44,4.17,4.17,0,0,0-1.33,1.18,5.27,5.27,0,0,0-.84,1.75,7.79,7.79,0,0,0-.29,2.14v9.12h-5V160.69H519Z" transform="translate(-91 -63)"/><path d="M553.75,174.83a10.43,10.43,0,0,1-3.48,3.69,9.69,9.69,0,0,1-5.34,1.4,10.11,10.11,0,0,1-3.93-.74,9.3,9.3,0,0,1-3.13-2.07,9.58,9.58,0,0,1-2.08-3.13,10.48,10.48,0,0,1-.74-4,10,10,0,0,1,.73-3.81,9.69,9.69,0,0,1,2-3.16,9.83,9.83,0,0,1,3.06-2.15,9.36,9.36,0,0,1,3.89-.79,10,10,0,0,1,4,.74,8.15,8.15,0,0,1,2.93,2,8.82,8.82,0,0,1,1.79,3.1,12.07,12.07,0,0,1,.6,3.87v.46a3.19,3.19,0,0,0,0,.42,1.73,1.73,0,0,0,0,.41H540a5.32,5.32,0,0,0,.62,2,4.76,4.76,0,0,0,1.18,1.37,4.63,4.63,0,0,0,1.54.8,6.19,6.19,0,0,0,1.71.24,4.92,4.92,0,0,0,2.83-.77,5.72,5.72,0,0,0,1.77-2Zm-4.52-7.22a3.31,3.31,0,0,0-.33-1.1,3.7,3.7,0,0,0-.83-1.14,4.31,4.31,0,0,0-1.37-.88,5.21,5.21,0,0,0-2-.34,4.61,4.61,0,0,0-2.81.91,4.84,4.84,0,0,0-1.71,2.55Z" transform="translate(-91 -63)"/><path d="M564.81,179.92a10.77,10.77,0,0,1-3.25-.45,9.31,9.31,0,0,1-2.47-1.2,7.58,7.58,0,0,1-1.77-1.71,8.22,8.22,0,0,1-1.1-2l4.45-1.9a4.78,4.78,0,0,0,1.72,2.15,4.36,4.36,0,0,0,2.42.7,4.07,4.07,0,0,0,2.16-.49,1.39,1.39,0,0,0,.8-1.18,1.44,1.44,0,0,0-.66-1.23,6.78,6.78,0,0,0-2.3-.86l-2.62-.57a9.19,9.19,0,0,1-1.81-.61,7.19,7.19,0,0,1-1.69-1.06,5.16,5.16,0,0,1-1.25-1.56,4.41,4.41,0,0,1-.5-2.13,5,5,0,0,1,.59-2.43,5.56,5.56,0,0,1,1.61-1.81,7.72,7.72,0,0,1,2.42-1.13,10.58,10.58,0,0,1,3-.4,10.43,10.43,0,0,1,4.75,1,6.48,6.48,0,0,1,3.08,3.33l-4.29,1.74a3.35,3.35,0,0,0-1.56-1.59,4.73,4.73,0,0,0-2.06-.5,3.84,3.84,0,0,0-1.86.44,1.29,1.29,0,0,0-.8,1.12,1.16,1.16,0,0,0,.67,1,7.76,7.76,0,0,0,1.81.68l2.84.69a8.15,8.15,0,0,1,4.24,2.18,5,5,0,0,1,1.39,3.55,5,5,0,0,1-.57,2.32,6.14,6.14,0,0,1-1.62,2,7.87,7.87,0,0,1-2.5,1.35A10.12,10.12,0,0,1,564.81,179.92Z" transform="translate(-91 -63)"/></g><path class="cls-3" d="M570,325H180a12,12,0,0,1-12-12V265a12,12,0,0,1,12-12H570a12,12,0,0,1,12,12v48A12,12,0,0,1,570,325Z" transform="translate(-91 -63)"/><path class="cls-4" d="M570,438H180a12,12,0,0,1-12-12V378a12,12,0,0,1,12-12H570a12,12,0,0,1,12,12v48A12,12,0,0,1,570,438Z" transform="translate(-91 -63)"/><g class="cls-2"><path d="M126.23,532.42h4.08l7.49,12.48h.2l-.2-3.59v-8.89h3.48V551h-3.69l-7.9-13.18h-.21l.21,3.59V551h-3.46Z" transform="translate(-91 -63)"/><path d="M153.16,549.37H153a4.31,4.31,0,0,1-1.62,1.52,4.7,4.7,0,0,1-2.31.56,4.35,4.35,0,0,1-3.6-1.48,6.17,6.17,0,0,1-1.18-4v-7.72h3.4v7.31a2.91,2.91,0,0,0,.61,2,2.31,2.31,0,0,0,1.78.66,2.5,2.5,0,0,0,1.24-.3,2.89,2.89,0,0,0,.91-.8,3.71,3.71,0,0,0,.57-1.2,5.38,5.38,0,0,0,.2-1.47v-6.24h3.4V551h-3.2Zm-4.26-13.63,1.09-3.53h4l-2.34,3.53Z" transform="translate(-91 -63)"/><path d="M159.27,538.29h3.2V540h.21a4.44,4.44,0,0,1,1.62-1.51,4.65,4.65,0,0,1,2.28-.57,4.22,4.22,0,0,1,2.44.67,3.82,3.82,0,0,1,1.41,1.67,5.14,5.14,0,0,1,1.69-1.65,4.84,4.84,0,0,1,2.65-.69,5,5,0,0,1,2,.37,3.76,3.76,0,0,1,1.41,1.06,4.47,4.47,0,0,1,.85,1.62,7.15,7.15,0,0,1,.28,2.07v8h-3.4v-7.41c0-1.73-.71-2.6-2.13-2.6a2.38,2.38,0,0,0-1.2.3,2.59,2.59,0,0,0-.87.81,4,4,0,0,0-.55,1.21,5.55,5.55,0,0,0-.19,1.5V551h-3.41v-7.41c0-1.73-.74-2.6-2.23-2.6a2.17,2.17,0,0,0-1.15.3,2.67,2.67,0,0,0-.83.81,4,4,0,0,0-.52,1.21,6,6,0,0,0-.18,1.5V551h-3.41Z" transform="translate(-91 -63)"/><path d="M194.22,548a7.3,7.3,0,0,1-2.38,2.53,6.65,6.65,0,0,1-3.66,1,7,7,0,0,1-2.69-.51,6.48,6.48,0,0,1-3.56-3.56,7,7,0,0,1-.51-2.72,6.93,6.93,0,0,1,.5-2.61,6.62,6.62,0,0,1,3.47-3.63,6.45,6.45,0,0,1,2.66-.54,6.85,6.85,0,0,1,2.73.5,5.61,5.61,0,0,1,2,1.41,6.08,6.08,0,0,1,1.22,2.12,8.09,8.09,0,0,1,.41,2.65v.31c0,.1,0,.2,0,.29a1.2,1.2,0,0,0,0,.28h-9.59a3.53,3.53,0,0,0,.43,1.34,3.17,3.17,0,0,0,.8.94,3.13,3.13,0,0,0,1.06.54,3.85,3.85,0,0,0,1.17.17,3.33,3.33,0,0,0,1.93-.53,3.88,3.88,0,0,0,1.21-1.34Zm-3.1-4.94a2.3,2.3,0,0,0-.22-.75,2.6,2.6,0,0,0-.57-.78,3,3,0,0,0-.94-.6,3.57,3.57,0,0,0-1.34-.23,3.17,3.17,0,0,0-1.92.62A3.38,3.38,0,0,0,185,543Z" transform="translate(-91 -63)"/><path d="M196.61,538.29h3.2v1.77h.2a3.46,3.46,0,0,1,.63-.86,4.84,4.84,0,0,1,.87-.68,5.16,5.16,0,0,1,1-.47,3.87,3.87,0,0,1,1.1-.17,4,4,0,0,1,1.16.14,3,3,0,0,1,.82.38l-.91,3a3,3,0,0,0-.69-.25,4,4,0,0,0-.92-.09,2.86,2.86,0,0,0-1.28.28,2.68,2.68,0,0,0-1,.77,3.4,3.4,0,0,0-.62,1.16,4.5,4.5,0,0,0-.23,1.45V551h-3.4Z" transform="translate(-91 -63)"/><path d="M212.44,537.88a7,7,0,0,1,2.72.5,6.49,6.49,0,0,1,2.13,1.41,6.33,6.33,0,0,1,1.41,2.14,7.7,7.7,0,0,1,0,5.46,6.48,6.48,0,0,1-1.41,2.15,6.63,6.63,0,0,1-2.13,1.4,7.48,7.48,0,0,1-5.43,0,6.23,6.23,0,0,1-3.54-3.55,7.56,7.56,0,0,1,0-5.46,6.3,6.3,0,0,1,3.54-3.55A7,7,0,0,1,212.44,537.88Zm0,10.42a3.36,3.36,0,0,0,1.26-.24,3.3,3.3,0,0,0,1.08-.72,3.36,3.36,0,0,0,.74-1.14,4,4,0,0,0,.28-1.54,3.9,3.9,0,0,0-.28-1.53,3.5,3.5,0,0,0-.74-1.15,3.12,3.12,0,0,0-1.08-.71,3.32,3.32,0,0,0-3.6.71,3.5,3.5,0,0,0-.74,1.15,4.09,4.09,0,0,0-.27,1.53,4.15,4.15,0,0,0,.27,1.54,3.24,3.24,0,0,0,3.08,2.1Z" transform="translate(-91 -63)"/><path d="M236.6,549.5h-.21a3.83,3.83,0,0,1-1.46,1.38,4.81,4.81,0,0,1-2.44.57,5.5,5.5,0,0,1-2.33-.51,6.29,6.29,0,0,1-1.95-1.4,6.81,6.81,0,0,1-1.34-2.15,7.85,7.85,0,0,1,0-5.46,6.65,6.65,0,0,1,1.34-2.14,6.16,6.16,0,0,1,1.95-1.41,5.49,5.49,0,0,1,2.33-.5,4.81,4.81,0,0,1,2.44.57,3.83,3.83,0,0,1,1.46,1.38h.21l-.21-1.82v-5.59h3.4V551H236.6Zm-3.41-1.2a3.31,3.31,0,0,0,3.12-2.1,4,4,0,0,0,.29-1.54,3.9,3.9,0,0,0-.29-1.53,3.69,3.69,0,0,0-.75-1.15,3.38,3.38,0,0,0-3.66-.7,3.74,3.74,0,0,0-1.08.73,3.53,3.53,0,0,0-.75,1.14,3.91,3.91,0,0,0-.29,1.51,3.84,3.84,0,0,0,.29,1.51,3.53,3.53,0,0,0,.75,1.14,3.38,3.38,0,0,0,1.08.73A3.17,3.17,0,0,0,233.19,548.3Z" transform="translate(-91 -63)"/><path d="M254.64,548a7.21,7.21,0,0,1-2.38,2.53,6.62,6.62,0,0,1-3.65,1,7,7,0,0,1-2.69-.51,6.45,6.45,0,0,1-3.57-3.56,7.24,7.24,0,0,1-.5-2.72,6.92,6.92,0,0,1,.49-2.61,6.76,6.76,0,0,1,1.38-2.16,6.92,6.92,0,0,1,2.09-1.47,6.5,6.5,0,0,1,2.67-.54,6.92,6.92,0,0,1,2.73.5,5.66,5.66,0,0,1,2,1.41,5.93,5.93,0,0,1,1.22,2.12,8.09,8.09,0,0,1,.42,2.65v.31a1.5,1.5,0,0,0,0,.29,1.23,1.23,0,0,0,0,.28h-9.6a3.53,3.53,0,0,0,.43,1.34,3.36,3.36,0,0,0,.81.94,3.09,3.09,0,0,0,1.05.54,3.85,3.85,0,0,0,1.17.17,3.38,3.38,0,0,0,1.94-.53,4,4,0,0,0,1.21-1.34ZM251.55,543a2.34,2.34,0,0,0-.23-.75,2.6,2.6,0,0,0-.57-.78,3.11,3.11,0,0,0-.93-.6,3.61,3.61,0,0,0-1.34-.23,3.18,3.18,0,0,0-1.93.62,3.38,3.38,0,0,0-1.17,1.74Z" transform="translate(-91 -63)"/><path d="M263.17,532.42h3.51V551h-3.51Z" transform="translate(-91 -63)"/><path d="M270.42,532.42h6.29a11.08,11.08,0,0,1,4,.67,8.61,8.61,0,0,1,3,1.91,8.39,8.39,0,0,1,1.91,3,11.18,11.18,0,0,1,0,7.57,8.26,8.26,0,0,1-1.91,2.94,8.73,8.73,0,0,1-3,1.9,11.08,11.08,0,0,1-4,.67h-6.29Zm6.14,15.28a8,8,0,0,0,2.7-.42,5.34,5.34,0,0,0,1.95-1.21,5,5,0,0,0,1.17-1.89,7.92,7.92,0,0,0,0-4.91,5,5,0,0,0-1.17-1.89,5.34,5.34,0,0,0-1.95-1.21,8,8,0,0,0-2.7-.43h-2.63v12Z" transform="translate(-91 -63)"/><path d="M303.91,549.5h-.21a3.83,3.83,0,0,1-1.46,1.38,4.79,4.79,0,0,1-2.44.57,5.53,5.53,0,0,1-2.33-.51,6.54,6.54,0,0,1-2-1.4,6.81,6.81,0,0,1-1.34-2.15,7.85,7.85,0,0,1,0-5.46,6.65,6.65,0,0,1,1.34-2.14,6.4,6.4,0,0,1,2-1.41,5.52,5.52,0,0,1,2.33-.5,4.79,4.79,0,0,1,2.44.57,3.83,3.83,0,0,1,1.46,1.38h.21L303.7,538v-5.59h3.41V551h-3.2Zm-3.41-1.2a3.52,3.52,0,0,0,1.29-.24,3.3,3.3,0,0,0,1.08-.72,3.53,3.53,0,0,0,.75-1.14,4,4,0,0,0,.29-1.54,3.9,3.9,0,0,0-.29-1.53,3.69,3.69,0,0,0-.75-1.15,3.12,3.12,0,0,0-1.08-.71,3.33,3.33,0,0,0-1.29-.25,3.25,3.25,0,0,0-1.28.26,3.49,3.49,0,0,0-1.08.73,3.4,3.4,0,0,0-.76,1.14,3.9,3.9,0,0,0-.28,1.51,3.83,3.83,0,0,0,.28,1.51,3.4,3.4,0,0,0,.76,1.14,3.18,3.18,0,0,0,1.08.73A3.09,3.09,0,0,0,300.5,548.3Z" transform="translate(-91 -63)"/><path d="M322,548a7.21,7.21,0,0,1-2.38,2.53,6.59,6.59,0,0,1-3.65,1,7,7,0,0,1-2.69-.51,6.4,6.4,0,0,1-3.56-3.56,7,7,0,0,1-.51-2.72,7.12,7.12,0,0,1,.49-2.61,6.76,6.76,0,0,1,1.38-2.16,6.85,6.85,0,0,1,2.1-1.47,6.42,6.42,0,0,1,2.66-.54,6.92,6.92,0,0,1,2.73.5,5.49,5.49,0,0,1,2,1.41,5.78,5.78,0,0,1,1.22,2.12,8.09,8.09,0,0,1,.42,2.65v.31a1.5,1.5,0,0,0,0,.29,2.3,2.3,0,0,0,0,.28h-9.6a3.71,3.71,0,0,0,.43,1.34,3.36,3.36,0,0,0,.81.94,3.09,3.09,0,0,0,1.05.54,3.85,3.85,0,0,0,1.17.17,3.36,3.36,0,0,0,1.94-.53,4,4,0,0,0,1.21-1.34ZM318.86,543a2.3,2.3,0,0,0-.22-.75,2.6,2.6,0,0,0-.57-.78,3.29,3.29,0,0,0-.94-.6,3.57,3.57,0,0,0-1.34-.23,3.13,3.13,0,0,0-1.92.62A3.27,3.27,0,0,0,312.7,543Z" transform="translate(-91 -63)"/><path d="M330.48,532.42h7.28a6.58,6.58,0,0,1,2.24.37,5.7,5.7,0,0,1,1.8,1,5,5,0,0,1,1.21,1.55,4.52,4.52,0,0,1-.27,4.38,4.64,4.64,0,0,1-1.78,1.52v.21a5.08,5.08,0,0,1,2.3,1.63,4.28,4.28,0,0,1,.87,2.74,4.65,4.65,0,0,1-.48,2.14,4.94,4.94,0,0,1-1.31,1.63,6,6,0,0,1-1.94,1A7.65,7.65,0,0,1,338,551h-7.54Zm7,7.59a2.59,2.59,0,0,0,1.89-.66,2.21,2.21,0,0,0,0-3.14,2.45,2.45,0,0,0-1.8-.65H334V540Zm.39,7.8a2.87,2.87,0,0,0,2-.66,2.25,2.25,0,0,0,.7-1.71,2.33,2.33,0,0,0-.71-1.73,3,3,0,0,0-2.12-.69H334v4.79Z" transform="translate(-91 -63)"/><path d="M354.27,549.68h-.21a5.79,5.79,0,0,1-1.44,1.25,4.15,4.15,0,0,1-2.17.52,5.2,5.2,0,0,1-1.86-.33,4.69,4.69,0,0,1-1.52-.89,4.1,4.1,0,0,1-1-1.38,4.31,4.31,0,0,1-.36-1.77,4,4,0,0,1,.39-1.78,4.11,4.11,0,0,1,1.09-1.37,5,5,0,0,1,1.65-.87,6.91,6.91,0,0,1,2.07-.3,8.85,8.85,0,0,1,2.05.2,9.92,9.92,0,0,1,1.33.4V543a2.1,2.1,0,0,0-.81-1.68,3,3,0,0,0-2-.66,3.77,3.77,0,0,0-3,1.48L346,540.42a6.72,6.72,0,0,1,5.54-2.54,6.56,6.56,0,0,1,4.52,1.39,5.22,5.22,0,0,1,1.56,4.12V551h-3.35Zm0-3.82a7.93,7.93,0,0,0-1.23-.46,5.59,5.59,0,0,0-1.4-.17,2.9,2.9,0,0,0-1.88.54,1.62,1.62,0,0,0-.66,1.31,1.48,1.48,0,0,0,.63,1.25,2.45,2.45,0,0,0,1.47.47,3.18,3.18,0,0,0,2.23-.9,3,3,0,0,0,.62-.94A2.77,2.77,0,0,0,354.27,545.86Z" transform="translate(-91 -63)"/><path d="M365.24,551.45a7.53,7.53,0,0,1-2.22-.31,6.18,6.18,0,0,1-1.69-.82,5.39,5.39,0,0,1-1.21-1.17,5.46,5.46,0,0,1-.75-1.34l3-1.3a3.27,3.27,0,0,0,1.18,1.47,3,3,0,0,0,1.65.48,2.73,2.73,0,0,0,1.48-.34.94.94,0,0,0,.55-.81,1,1,0,0,0-.45-.84,4.84,4.84,0,0,0-1.58-.59l-1.79-.39a6,6,0,0,1-1.24-.41,4.58,4.58,0,0,1-1.15-.73,3.47,3.47,0,0,1-.86-1.07,2.93,2.93,0,0,1-.34-1.45,3.38,3.38,0,0,1,.4-1.67,3.82,3.82,0,0,1,1.11-1.23,5.25,5.25,0,0,1,1.65-.78,7.4,7.4,0,0,1,2-.27,7.12,7.12,0,0,1,3.25.71,4.44,4.44,0,0,1,2.11,2.28l-2.94,1.19a2.27,2.27,0,0,0-1.07-1.09,3.27,3.27,0,0,0-1.4-.34,2.63,2.63,0,0,0-1.28.3.88.88,0,0,0-.54.77.79.79,0,0,0,.45.7,5.68,5.68,0,0,0,1.24.47l1.95.47a5.69,5.69,0,0,1,2.9,1.49,3.49,3.49,0,0,1,.95,2.43,3.4,3.4,0,0,1-.39,1.59,4.25,4.25,0,0,1-1.11,1.34,5.59,5.59,0,0,1-1.71.92A7.1,7.1,0,0,1,365.24,551.45Z" transform="translate(-91 -63)"/><path d="M385,548a7.21,7.21,0,0,1-2.38,2.53,6.62,6.62,0,0,1-3.65,1,7,7,0,0,1-2.69-.51,6.45,6.45,0,0,1-3.57-3.56,7.24,7.24,0,0,1-.5-2.72,6.92,6.92,0,0,1,.49-2.61,6.76,6.76,0,0,1,1.38-2.16,6.92,6.92,0,0,1,2.09-1.47,6.5,6.5,0,0,1,2.67-.54,6.92,6.92,0,0,1,2.73.5,5.66,5.66,0,0,1,2,1.41,5.93,5.93,0,0,1,1.22,2.12,8.09,8.09,0,0,1,.42,2.65v.31a1.5,1.5,0,0,0,0,.29,1.23,1.23,0,0,0,0,.28h-9.6a3.53,3.53,0,0,0,.43,1.34,3.36,3.36,0,0,0,.81.94,3.09,3.09,0,0,0,1.05.54,3.85,3.85,0,0,0,1.17.17,3.38,3.38,0,0,0,1.94-.53,4,4,0,0,0,1.21-1.34ZM381.86,543a2.34,2.34,0,0,0-.23-.75,2.6,2.6,0,0,0-.57-.78,3.11,3.11,0,0,0-.93-.6,3.61,3.61,0,0,0-1.34-.23,3.18,3.18,0,0,0-1.93.62,3.38,3.38,0,0,0-1.17,1.74Z" transform="translate(-91 -63)"/><path d="M402.55,549.5h-.21a3.87,3.87,0,0,1-1.45,1.38,4.85,4.85,0,0,1-2.45.57,5.45,5.45,0,0,1-2.32-.51,6.29,6.29,0,0,1-1.95-1.4,6.63,6.63,0,0,1-1.34-2.15,7.7,7.7,0,0,1,0-5.46,6.48,6.48,0,0,1,1.34-2.14,6.16,6.16,0,0,1,1.95-1.41,5.44,5.44,0,0,1,2.32-.5,4.85,4.85,0,0,1,2.45.57,3.87,3.87,0,0,1,1.45,1.38h.21l-.21-1.82v-5.59h3.41V551h-3.2Zm-3.41-1.2a3.48,3.48,0,0,0,1.29-.24,3.3,3.3,0,0,0,1.08-.72,3.73,3.73,0,0,0,.76-1.14,4,4,0,0,0,.28-1.54,3.67,3.67,0,0,0-1-2.68,3.12,3.12,0,0,0-1.08-.71,3.37,3.37,0,0,0-2.57,0,3.49,3.49,0,0,0-1.08.73,3.38,3.38,0,0,0-.75,1.14,3.73,3.73,0,0,0-.29,1.51,3.67,3.67,0,0,0,.29,1.51,3.38,3.38,0,0,0,.75,1.14,3.18,3.18,0,0,0,1.08.73A3.12,3.12,0,0,0,399.14,548.3Z" transform="translate(-91 -63)"/><path d="M420.6,548a7.3,7.3,0,0,1-2.38,2.53,6.65,6.65,0,0,1-3.66,1,7,7,0,0,1-2.69-.51,6.48,6.48,0,0,1-3.56-3.56,7,7,0,0,1-.51-2.72,6.93,6.93,0,0,1,.5-2.61,6.76,6.76,0,0,1,1.38-2.16,6.68,6.68,0,0,1,2.09-1.47,6.42,6.42,0,0,1,2.66-.54,6.85,6.85,0,0,1,2.73.5,5.61,5.61,0,0,1,2,1.41,6.08,6.08,0,0,1,1.22,2.12,8.36,8.36,0,0,1,.41,2.65v.31c0,.1,0,.2,0,.29a1.2,1.2,0,0,0,0,.28h-9.59a3.53,3.53,0,0,0,.43,1.34,3.17,3.17,0,0,0,.8.94,3,3,0,0,0,1.06.54,3.85,3.85,0,0,0,1.17.17,3.35,3.35,0,0,0,1.93-.53,3.88,3.88,0,0,0,1.21-1.34ZM417.5,543a2.3,2.3,0,0,0-.22-.75,2.6,2.6,0,0,0-.57-.78,3.16,3.16,0,0,0-.94-.6,3.57,3.57,0,0,0-1.34-.23,3.15,3.15,0,0,0-1.92.62,3.27,3.27,0,0,0-1.17,1.74Z" transform="translate(-91 -63)"/><path d="M429.12,532.42h6.3a11.06,11.06,0,0,1,4,.67,8.61,8.61,0,0,1,3,1.91,8.39,8.39,0,0,1,1.91,3,11.18,11.18,0,0,1,0,7.57,8.26,8.26,0,0,1-1.91,2.94,8.73,8.73,0,0,1-3,1.9,11.06,11.06,0,0,1-4,.67h-6.3Zm6.14,15.28a8,8,0,0,0,2.7-.42,5.34,5.34,0,0,0,2-1.21,5,5,0,0,0,1.17-1.89,7.92,7.92,0,0,0,0-4.91,5,5,0,0,0-1.17-1.89,5.34,5.34,0,0,0-2-1.21,8,8,0,0,0-2.7-.43h-2.63v12Z" transform="translate(-91 -63)"/><path d="M455.25,549.68H455a5.46,5.46,0,0,1-1.44,1.25,4.15,4.15,0,0,1-2.17.52,5.2,5.2,0,0,1-1.86-.33,4.69,4.69,0,0,1-1.52-.89,4.07,4.07,0,0,1-1-1.38,4.16,4.16,0,0,1-.37-1.77,4,4,0,0,1,.39-1.78,4.24,4.24,0,0,1,1.09-1.37,5,5,0,0,1,1.66-.87,6.79,6.79,0,0,1,2.06-.3,9,9,0,0,1,2.06.2,9.72,9.72,0,0,1,1.32.4V543a2.12,2.12,0,0,0-.8-1.68,3.07,3.07,0,0,0-2-.66,3.75,3.75,0,0,0-3,1.48L447,540.42a6.73,6.73,0,0,1,5.54-2.54,6.58,6.58,0,0,1,4.53,1.39,5.22,5.22,0,0,1,1.56,4.12V551h-3.36Zm0-3.82a7.93,7.93,0,0,0-1.23-.46,5.57,5.57,0,0,0-1.39-.17,2.92,2.92,0,0,0-1.89.54,1.62,1.62,0,0,0-.66,1.31,1.46,1.46,0,0,0,.64,1.25,2.41,2.41,0,0,0,1.47.47,3.18,3.18,0,0,0,2.22-.9A2.85,2.85,0,0,0,455,547,2.77,2.77,0,0,0,455.25,545.86Z" transform="translate(-91 -63)"/><path d="M462.46,541.2h-2.24v-2.91h2.24v-3.9h3.4v3.9H469v2.91h-3.12v5.09a3.76,3.76,0,0,0,.09.85,1.41,1.41,0,0,0,.35.66,1.3,1.3,0,0,0,1,.42,2.16,2.16,0,0,0,.7-.09,2.3,2.3,0,0,0,.5-.24l1,3a5.92,5.92,0,0,1-1.29.43,7.86,7.86,0,0,1-1.52.14,4.52,4.52,0,0,1-1.73-.31,3.59,3.59,0,0,1-1.28-.83,4.52,4.52,0,0,1-1.22-3.4Z" transform="translate(-91 -63)"/><path d="M477.38,537.88a7.08,7.08,0,0,1,2.72.5,6.49,6.49,0,0,1,2.13,1.41,6.31,6.31,0,0,1,1.4,2.14,7.56,7.56,0,0,1,0,5.46,6.45,6.45,0,0,1-1.4,2.15,6.63,6.63,0,0,1-2.13,1.4,7.51,7.51,0,0,1-5.44,0,6.63,6.63,0,0,1-2.13-1.4,6.48,6.48,0,0,1-1.41-2.15,7.7,7.7,0,0,1,0-5.46,6.33,6.33,0,0,1,1.41-2.14,6.49,6.49,0,0,1,2.13-1.41A7,7,0,0,1,477.38,537.88Zm0,10.42a3.44,3.44,0,0,0,1.26-.24,3.3,3.3,0,0,0,1.08-.72,3.36,3.36,0,0,0,.74-1.14,4.15,4.15,0,0,0,.27-1.54,4.09,4.09,0,0,0-.27-1.53,3.5,3.5,0,0,0-.74-1.15,3.12,3.12,0,0,0-1.08-.71,3.3,3.3,0,0,0-3.6.71,3.5,3.5,0,0,0-.74,1.15,4.09,4.09,0,0,0-.28,1.53,4.14,4.14,0,0,0,.28,1.54,3.36,3.36,0,0,0,.74,1.14,3.16,3.16,0,0,0,2.34,1Z" transform="translate(-91 -63)"/><path d="M491.24,551.45a7.56,7.56,0,0,1-2.23-.31,6.18,6.18,0,0,1-1.69-.82,5.61,5.61,0,0,1-1.21-1.17,5.81,5.81,0,0,1-.75-1.34l3-1.3a3.29,3.29,0,0,0,1.19,1.47,3,3,0,0,0,1.65.48,2.77,2.77,0,0,0,1.48-.34,1,1,0,0,0,.54-.81,1,1,0,0,0-.45-.84,4.76,4.76,0,0,0-1.57-.59l-1.8-.39a5.73,5.73,0,0,1-1.23-.41,4.64,4.64,0,0,1-1.16-.73,3.62,3.62,0,0,1-.86-1.07,3,3,0,0,1-.34-1.45,3.39,3.39,0,0,1,.41-1.67,3.79,3.79,0,0,1,1.1-1.23,5.25,5.25,0,0,1,1.65-.78,7.5,7.5,0,0,1,2-.27,7.1,7.1,0,0,1,3.25.71,4.4,4.4,0,0,1,2.11,2.28l-2.94,1.19a2.25,2.25,0,0,0-1.06-1.09,3.32,3.32,0,0,0-1.41-.34,2.59,2.59,0,0,0-1.27.3.88.88,0,0,0-.55.77.78.78,0,0,0,.46.7,5.38,5.38,0,0,0,1.23.47l1.95.47a5.65,5.65,0,0,1,2.9,1.49,3.49,3.49,0,0,1,.95,2.43,3.4,3.4,0,0,1-.39,1.59,4.36,4.36,0,0,1-1.1,1.34,5.53,5.53,0,0,1-1.72.92A7.08,7.08,0,0,1,491.24,551.45Z" transform="translate(-91 -63)"/></g><path class="cls-5" d="M605,778.5H138a12,12,0,0,1-12-12V588a12,12,0,0,1,12-12H605a12,12,0,0,1,12,12V766.5A12,12,0,0,1,605,778.5Z" transform="translate(-91 -63)"/><path class="cls-6" d="M604.91,773.55H138.09a8.11,8.11,0,0,1-8.09-8.09V588.09a8.11,8.11,0,0,1,8.09-8.09H604.91a8.11,8.11,0,0,1,8.09,8.09V765.46A8.11,8.11,0,0,1,604.91,773.55Z" transform="translate(-91 -63)"/><g class="cls-2"><path d="M152,607.84l-7.12-8.65h2.39l5.92,7.35h.12l6-7.35h2.33l-7.09,8.65,7.49,9.25H159.7l-6.36-7.87h-.12l-6.37,7.87h-2.33Z" transform="translate(-91 -63)"/><path d="M173.59,617.09,169.31,612l-4.21,5.05h-2.27l5.36-6.22-5.18-6h2.24l4.09,4.83,4-4.83h2.3l-5.25,6,5.43,6.22Z" transform="translate(-91 -63)"/><path d="M187.14,617.09,182.86,612l-4.21,5.05h-2.27l5.36-6.22-5.18-6h2.24l4.09,4.83,4-4.83h2.3l-5.24,6,5.42,6.22Z" transform="translate(-91 -63)"/><path d="M200.69,617.09,196.41,612l-4.21,5.05h-2.27l5.36-6.22-5.18-6h2.24l4.09,4.83,4-4.83h2.3l-5.24,6,5.42,6.22Z" transform="translate(-91 -63)"/><path d="M214.24,617.09,210,612l-4.21,5.05h-2.27l5.36-6.22-5.18-6h2.24l4.09,4.83,4-4.83h2.3l-5.24,6,5.42,6.22Z" transform="translate(-91 -63)"/><path d="M227.79,617.09,223.52,612l-4.22,5.05H217l5.36-6.22-5.18-6h2.24l4.1,4.83,4-4.83h2.3l-5.24,6,5.42,6.22Z" transform="translate(-91 -63)"/><path d="M248.46,617.09,244.19,612,240,617.09H237.7l5.37-6.22-5.19-6h2.25l4.09,4.83,4-4.83h2.31l-5.25,6,5.43,6.22Z" transform="translate(-91 -63)"/><path d="M262,617.09,257.74,612l-4.21,5.05h-2.28l5.37-6.22-5.19-6h2.25l4.09,4.83,4-4.83h2.31l-5.25,6,5.43,6.22Z" transform="translate(-91 -63)"/><path d="M275.56,617.09,271.29,612l-4.21,5.05H264.8l5.37-6.22-5.19-6h2.25l4.09,4.83,4-4.83h2.31l-5.25,6,5.43,6.22Z" transform="translate(-91 -63)"/><path d="M289.12,617.09,284.84,612l-4.21,5.05h-2.28l5.37-6.22-5.18-6h2.24l4.09,4.83,4-4.83h2.31l-5.25,6,5.43,6.22Z" transform="translate(-91 -63)"/><path d="M302.67,617.09,298.39,612l-4.21,5.05H291.9l5.37-6.22-5.18-6h2.24l4.09,4.83,4-4.83h2.31l-5.25,6,5.43,6.22Z" transform="translate(-91 -63)"/><path d="M316.22,617.09,311.94,612l-4.21,5.05h-2.28l5.37-6.22-5.18-6h2.24l4.09,4.83,4-4.83h2.31l-5.25,6,5.43,6.22Z" transform="translate(-91 -63)"/><path d="M336.89,617.09,332.62,612l-4.22,5.05h-2.27l5.36-6.22-5.18-6h2.24l4.1,4.83,4-4.83H339l-5.24,6,5.42,6.22Z" transform="translate(-91 -63)"/><path d="M350.44,617.09,346.17,612,342,617.09h-2.27l5.36-6.22-5.18-6h2.24l4.1,4.83,4-4.83h2.3l-5.24,6,5.42,6.22Z" transform="translate(-91 -63)"/><path d="M364,617.09,359.72,612l-4.22,5.05h-2.27l5.37-6.22-5.19-6h2.24l4.1,4.83,4-4.83h2.3l-5.24,6,5.42,6.22Z" transform="translate(-91 -63)"/><path d="M377.54,617.09,373.27,612l-4.22,5.05h-2.27l5.37-6.22-5.19-6h2.25l4.09,4.83,4-4.83h2.3l-5.24,6,5.43,6.22Z" transform="translate(-91 -63)"/><path d="M391.09,617.09,386.82,612l-4.22,5.05h-2.27l5.37-6.22-5.19-6h2.25l4.09,4.83,4-4.83h2.3l-5.24,6,5.43,6.22Z" transform="translate(-91 -63)"/><path d="M404.64,617.09,400.37,612l-4.22,5.05h-2.27l5.37-6.22-5.19-6h2.25l4.09,4.83,4-4.83h2.3l-5.24,6,5.43,6.22Z" transform="translate(-91 -63)"/><path d="M418.19,617.09,413.92,612l-4.21,5.05h-2.28l5.37-6.22-5.19-6h2.25l4.09,4.83,4-4.83h2.31l-5.25,6,5.43,6.22Z" transform="translate(-91 -63)"/><path d="M431.74,617.09,427.47,612l-4.21,5.05H421l5.37-6.22-5.19-6h2.25l4.09,4.83,4-4.83h2.31l-5.25,6,5.43,6.22Z" transform="translate(-91 -63)"/><path d="M445.29,617.09,441,612l-4.21,5.05h-2.28l5.37-6.22-5.19-6H437l4.09,4.83,4-4.83h2.31l-5.25,6,5.43,6.22Z" transform="translate(-91 -63)"/><path d="M458.85,617.09,454.57,612l-4.21,5.05h-2.28l5.37-6.22-5.18-6h2.24l4.09,4.83,4-4.83h2.31l-5.25,6,5.43,6.22Z" transform="translate(-91 -63)"/><path d="M479.52,617.09,475.24,612,471,617.09h-2.27l5.36-6.22-5.18-6h2.24l4.1,4.83,4-4.83h2.3l-5.24,6,5.42,6.22Z" transform="translate(-91 -63)"/><path d="M493.07,617.09,488.79,612l-4.21,5.05h-2.27l5.36-6.22-5.18-6h2.24l4.1,4.83,4-4.83h2.3l-5.24,6,5.42,6.22Z" transform="translate(-91 -63)"/><path d="M506.62,617.09,502.35,612l-4.22,5.05h-2.27l5.36-6.22-5.18-6h2.24l4.1,4.83,4-4.83h2.3l-5.24,6,5.42,6.22Z" transform="translate(-91 -63)"/><path d="M520.17,617.09,515.9,612l-4.22,5.05h-2.27l5.37-6.22-5.19-6h2.24l4.1,4.83,4-4.83h2.3l-5.24,6,5.42,6.22Z" transform="translate(-91 -63)"/><path d="M533.72,617.09,529.45,612l-4.22,5.05H523l5.37-6.22-5.19-6h2.24l4.1,4.83,4-4.83h2.3l-5.24,6,5.42,6.22Z" transform="translate(-91 -63)"/></g><g class="cls-2"><path d="M155,637.09,150.76,632l-4.21,5.05h-2.28l5.37-6.22-5.19-6h2.25l4.09,4.83,4-4.83h2.31l-5.25,6,5.43,6.22Z" transform="translate(-91 -63)"/><path d="M168.58,637.09,164.31,632l-4.21,5.05h-2.28l5.37-6.22-5.19-6h2.25l4.09,4.83,4-4.83h2.31l-5.25,6,5.43,6.22Z" transform="translate(-91 -63)"/><path d="M182.14,637.09,177.86,632l-4.21,5.05h-2.28l5.37-6.22-5.18-6h2.24l4.09,4.83,4-4.83h2.31l-5.25,6,5.43,6.22Z" transform="translate(-91 -63)"/><path d="M195.69,637.09,191.41,632l-4.21,5.05h-2.28l5.37-6.22-5.18-6h2.24l4.09,4.83,4-4.83h2.31l-5.25,6,5.43,6.22Z" transform="translate(-91 -63)"/><path d="M209.24,637.09,205,632l-4.21,5.05h-2.27l5.36-6.22-5.18-6h2.24l4.09,4.83,4-4.83h2.31l-5.25,6,5.43,6.22Z" transform="translate(-91 -63)"/><path d="M222.79,637.09,218.51,632l-4.21,5.05H212l5.36-6.22-5.18-6h2.24l4.09,4.83,4-4.83h2.31l-5.25,6,5.43,6.22Z" transform="translate(-91 -63)"/><path d="M236.34,637.09,232.06,632l-4.21,5.05h-2.27l5.36-6.22-5.18-6H228l4.09,4.83,4-4.83h2.3l-5.24,6,5.42,6.22Z" transform="translate(-91 -63)"/><path d="M249.89,637.09,245.61,632l-4.21,5.05h-2.27l5.36-6.22-5.18-6h2.24l4.09,4.83,4-4.83H252l-5.24,6,5.42,6.22Z" transform="translate(-91 -63)"/><path d="M270.56,637.09,266.29,632l-4.22,5.05H259.8l5.37-6.22-5.19-6h2.25l4.09,4.83,4-4.83h2.3l-5.24,6,5.43,6.22Z" transform="translate(-91 -63)"/><path d="M291.24,637.09,287,632l-4.21,5.05h-2.28l5.37-6.22-5.18-6h2.24l4.09,4.83,4-4.83h2.31l-5.25,6,5.43,6.22Z" transform="translate(-91 -63)"/><path d="M311.91,637.09,307.64,632l-4.22,5.05h-2.27l5.36-6.22-5.18-6h2.24l4.1,4.83,4-4.83H314l-5.24,6,5.42,6.22Z" transform="translate(-91 -63)"/><path d="M325.46,637.09,321.19,632,317,637.09H314.7l5.36-6.22-5.18-6h2.24l4.1,4.83,4-4.83h2.3l-5.24,6,5.42,6.22Z" transform="translate(-91 -63)"/><path d="M339,637.09,334.74,632l-4.22,5.05h-2.27l5.37-6.22-5.19-6h2.25l4.09,4.83,4-4.83h2.3l-5.24,6,5.43,6.22Z" transform="translate(-91 -63)"/><path d="M359.69,637.09,355.41,632l-4.21,5.05h-2.28l5.37-6.22-5.18-6h2.24l4.09,4.83,4-4.83h2.31l-5.25,6,5.43,6.22Z" transform="translate(-91 -63)"/><path d="M373.24,637.09,369,632l-4.21,5.05h-2.28l5.37-6.22-5.18-6h2.24l4.09,4.83,4-4.83h2.31l-5.25,6,5.43,6.22Z" transform="translate(-91 -63)"/><path d="M393.91,637.09,389.64,632l-4.22,5.05h-2.27l5.36-6.22-5.18-6h2.24l4.1,4.83,4-4.83H396l-5.24,6,5.42,6.22Z" transform="translate(-91 -63)"/><path d="M414.58,637.09,410.31,632l-4.21,5.05h-2.28l5.37-6.22-5.19-6h2.25l4.09,4.83,4-4.83h2.31l-5.25,6,5.43,6.22Z" transform="translate(-91 -63)"/><path d="M428.13,637.09,423.86,632l-4.21,5.05h-2.28l5.37-6.22-5.19-6h2.25l4.09,4.83,4-4.83h2.31l-5.25,6,5.43,6.22Z" transform="translate(-91 -63)"/><path d="M448.81,637.09,444.54,632l-4.22,5.05h-2.27l5.36-6.22-5.18-6h2.24l4.09,4.83,4-4.83h2.3l-5.24,6,5.42,6.22Z" transform="translate(-91 -63)"/><path d="M469.48,637.09,465.21,632,461,637.09h-2.28l5.37-6.22-5.19-6h2.25l4.09,4.83,4-4.83h2.31l-5.25,6,5.43,6.22Z" transform="translate(-91 -63)"/><path d="M483,637.09,478.76,632l-4.22,5.05h-2.27l5.37-6.22-5.19-6h2.25l4.09,4.83,4-4.83h2.3l-5.24,6,5.43,6.22Z" transform="translate(-91 -63)"/><path d="M496.58,637.09,492.31,632l-4.21,5.05h-2.28l5.37-6.22-5.19-6h2.25l4.09,4.83,4-4.83h2.31l-5.25,6,5.43,6.22Z" transform="translate(-91 -63)"/><path d="M524.38,637.09,520.11,632l-4.22,5.05h-2.27l5.37-6.22-5.19-6h2.25l4.09,4.83,4-4.83h2.3l-5.24,6,5.43,6.22Z" transform="translate(-91 -63)"/><path d="M537.93,637.09,533.66,632l-4.22,5.05h-2.27l5.37-6.22-5.19-6h2.25l4.09,4.83,4-4.83H540l-5.24,6,5.43,6.22Z" transform="translate(-91 -63)"/><path d="M551.48,637.09,547.21,632,543,637.09h-2.27l5.37-6.22-5.19-6h2.25l4.09,4.83,4-4.83h2.3l-5.24,6,5.43,6.22Z" transform="translate(-91 -63)"/><path d="M565,637.09,560.76,632l-4.22,5.05h-2.27l5.37-6.22-5.19-6h2.25l4.09,4.83,4-4.83h2.3l-5.24,6,5.43,6.22Z" transform="translate(-91 -63)"/><path d="M578.58,637.09,574.31,632l-4.21,5.05h-2.28l5.37-6.22-5.19-6h2.25l4.09,4.83,4-4.83h2.31l-5.25,6,5.43,6.22Z" transform="translate(-91 -63)"/></g><g class="cls-2"><path d="M155,657.09,150.76,652l-4.21,5.05h-2.28l5.37-6.22-5.19-6h2.25l4.09,4.83,4-4.83h2.31l-5.25,6,5.43,6.22Z" transform="translate(-91 -63)"/><path d="M168.58,657.09,164.31,652l-4.21,5.05h-2.28l5.37-6.22-5.19-6h2.25l4.09,4.83,4-4.83h2.31l-5.25,6,5.43,6.22Z" transform="translate(-91 -63)"/><path d="M182.14,657.09,177.86,652l-4.21,5.05h-2.28l5.37-6.22-5.18-6h2.24l4.09,4.83,4-4.83h2.31l-5.25,6,5.43,6.22Z" transform="translate(-91 -63)"/><path d="M195.69,657.09,191.41,652l-4.21,5.05h-2.28l5.37-6.22-5.18-6h2.24l4.09,4.83,4-4.83h2.31l-5.25,6,5.43,6.22Z" transform="translate(-91 -63)"/><path d="M209.24,657.09,205,652l-4.21,5.05h-2.27l5.36-6.22-5.18-6h2.24l4.09,4.83,4-4.83h2.31l-5.25,6,5.43,6.22Z" transform="translate(-91 -63)"/><path d="M222.79,657.09,218.51,652l-4.21,5.05H212l5.36-6.22-5.18-6h2.24l4.09,4.83,4-4.83h2.31l-5.25,6,5.43,6.22Z" transform="translate(-91 -63)"/></g><g class="cls-2"><path class="cls-4" d="M264.75,732.49V700.07l-7.4,3.12-2.94-6.79,12.3-5.75h6.06v41.84Z" transform="translate(-91 -63)"/><path class="cls-4" d="M281.33,732.49v-7.28q3.62-3.54,6.67-6.61l2.63-2.63,2.51-2.51c.77-.77,1.47-1.47,2.08-2.11s1.08-1.13,1.41-1.49l1.74-2.08a10.1,10.1,0,0,0,1.22-1.81,9.35,9.35,0,0,0,.71-1.77,7.39,7.39,0,0,0,.24-1.93,4.69,4.69,0,0,0-1.59-3.52,6.07,6.07,0,0,0-4.34-1.5,5.7,5.7,0,0,0-4.28,1.56,8.08,8.08,0,0,0-2.08,3.52l-7.28-3a13.21,13.21,0,0,1,1.59-3.39,12.54,12.54,0,0,1,2.81-3.12,14.64,14.64,0,0,1,9.36-3.15,16.55,16.55,0,0,1,5.75.94,13.05,13.05,0,0,1,4.35,2.6,11.72,11.72,0,0,1,2.75,3.89,11.88,11.88,0,0,1,1,4.8,13.86,13.86,0,0,1-1.93,7.19,31.48,31.48,0,0,1-4.68,6.09l-5.26,5.26q-2.08,2.09-4.71,4.65l.24.37h16.95v7Z" transform="translate(-91 -63)"/><path class="cls-4" d="M329.05,733.47a17.77,17.77,0,0,1-4.92-.67,14.32,14.32,0,0,1-4.32-2,14.72,14.72,0,0,1-3.45-3.46,15.54,15.54,0,0,1-2.3-4.83l7.53-3a8.57,8.57,0,0,0,2.69,4.62,7.24,7.24,0,0,0,4.77,1.56,7.4,7.4,0,0,0,2.45-.4,6,6,0,0,0,2-1.13,5.84,5.84,0,0,0,1.38-1.74,5.43,5.43,0,0,0-1.47-6.52,8.79,8.79,0,0,0-5.48-1.53h-3.61V707h3.31a9.47,9.47,0,0,0,2.38-.3,6.14,6.14,0,0,0,2.05-1,4.7,4.7,0,0,0,1.41-1.65,5.19,5.19,0,0,0,.52-2.36,4.36,4.36,0,0,0-1.47-3.4,5.79,5.79,0,0,0-4-1.31,5.59,5.59,0,0,0-4.13,1.44,7.81,7.81,0,0,0-2,3.21l-7.34-3a14.14,14.14,0,0,1,1.66-3.15,13,13,0,0,1,2.78-2.94,14.56,14.56,0,0,1,3.94-2.14,15.2,15.2,0,0,1,5.21-.82,16.69,16.69,0,0,1,5.47.85,13.14,13.14,0,0,1,4.25,2.36,10.56,10.56,0,0,1,2.76,3.55,10.15,10.15,0,0,1,1,4.43,11.27,11.27,0,0,1-.46,3.31,11.52,11.52,0,0,1-1.2,2.63,9.37,9.37,0,0,1-1.68,2,9.15,9.15,0,0,1-1.93,1.31v.49a11.16,11.16,0,0,1,4.87,3.73,10.57,10.57,0,0,1,1.92,6.49,11.81,11.81,0,0,1-4,9.05,13.82,13.82,0,0,1-4.62,2.66A18.07,18.07,0,0,1,329.05,733.47Z" transform="translate(-91 -63)"/><path class="cls-4" d="M367.9,732.49v-7.71H348.57V718.3l18.6-27.65h8.68v26.67h5.27v7.46h-5.27v7.71Zm0-29.91h-.49l-10,14.74H367.9Z" transform="translate(-91 -63)"/><path class="cls-4" d="M401.12,733.47a17.12,17.12,0,0,1-4.74-.67,14.53,14.53,0,0,1-4.37-2.08,14.35,14.35,0,0,1-3.52-3.52,14.66,14.66,0,0,1-2.23-5.05l7.28-2.81a9.2,9.2,0,0,0,2.6,4.89,6.81,6.81,0,0,0,4.92,1.84,6.94,6.94,0,0,0,2.72-.52,7.15,7.15,0,0,0,2.21-1.44,6.25,6.25,0,0,0,1.46-2.17,7.17,7.17,0,0,0,.52-2.78,7,7,0,0,0-.52-2.73,6.91,6.91,0,0,0-1.43-2.2,6.55,6.55,0,0,0-2.18-1.47,7.28,7.28,0,0,0-2.78-.52,6.72,6.72,0,0,0-3.36.83,9,9,0,0,0-2.51,2l-7.77-3.55,2.45-20.92h23.55v7H396.53l-1.59,9.79.49.12a11.43,11.43,0,0,1,3-1.77,11.16,11.16,0,0,1,4.28-.74,12.79,12.79,0,0,1,5,1,13.16,13.16,0,0,1,4.22,2.85,13.94,13.94,0,0,1,2.94,4.43,15.68,15.68,0,0,1,0,11.54,13.37,13.37,0,0,1-3.09,4.52,14.3,14.3,0,0,1-4.71,3A16.29,16.29,0,0,1,401.12,733.47Z" transform="translate(-91 -63)"/><path class="cls-4" d="M438.62,705.7a11.35,11.35,0,0,1,4.65,1,13.29,13.29,0,0,1,4,2.77,13.54,13.54,0,0,1,2.85,4.27,13.81,13.81,0,0,1,1.07,5.48,13.26,13.26,0,0,1-1.23,5.72,14.1,14.1,0,0,1-3.27,4.51,15.33,15.33,0,0,1-4.71,3,14.91,14.91,0,0,1-5.6,1.06,15.06,15.06,0,0,1-10.92-4.35,13.91,13.91,0,0,1-3.06-4.62,14.8,14.8,0,0,1-1.07-5.57,17.58,17.58,0,0,1,1.68-7.7,50.62,50.62,0,0,1,4.26-7.14l10.15-14.42,6.18,4.25-8.56,12,.3.37A8,8,0,0,1,438.62,705.7Zm-2.32,20.37a7.25,7.25,0,0,0,2.63-.49,6.8,6.8,0,0,0,2.26-1.39,6.68,6.68,0,0,0,1.56-2.15,6.41,6.41,0,0,0,.58-2.76,6.61,6.61,0,0,0-.58-2.79,6.49,6.49,0,0,0-1.56-2.18,6.66,6.66,0,0,0-2.26-1.4,7.47,7.47,0,0,0-2.63-.49,7.35,7.35,0,0,0-2.66.49,7.07,7.07,0,0,0-2.26,1.4,6.46,6.46,0,0,0-1.6,2.18,6.76,6.76,0,0,0-.58,2.79,6.56,6.56,0,0,0,.58,2.76,6.65,6.65,0,0,0,1.6,2.15,7.23,7.23,0,0,0,2.26,1.39A7.14,7.14,0,0,0,436.3,726.07Z" transform="translate(-91 -63)"/><path class="cls-4" d="M457.53,729.74,475,698.6l-.18-.37H455.51l.12-7.58H484v8l-19.76,34.87Z" transform="translate(-91 -63)"/></g><path class="cls-7" d="M600.5,1248h-451A56.51,56.51,0,0,1,93,1191.5v-7a56.51,56.51,0,0,1,56.5-56.5h451a56.51,56.51,0,0,1,56.5,56.5v7A56.51,56.51,0,0,1,600.5,1248Z" transform="translate(-91 -63)"/><rect class="cls-8" x="2" y="1065" width="564" height="73"/><path class="cls-9" d="M193.94,1191.5H160.05a5.57,5.57,0,0,1-5.56-5.56v-24.89a5.57,5.57,0,0,1,5.56-5.56h33.89a5.57,5.57,0,0,1,5.56,5.56v24.89A5.57,5.57,0,0,1,193.94,1191.5Z" transform="translate(-91 -63)"/><g class="cls-2"><path class="cls-6" d="M147.75,1203.55l-2.6-4.11h2l1.67,2.81h.1l1.67-2.81h2l-2.6,4.11,2.82,4.48h-2l-1.87-3.09h-.1L147,1208h-2Z" transform="translate(-91 -63)"/><path class="cls-6" d="M155.13,1205.05l-2-2.9H155l1.07,1.64h.08l1-1.64h1.92l-2.07,2.9,2.07,3h-1.85l-1.1-1.68H156L155,1208h-1.86Z" transform="translate(-91 -63)"/><path class="cls-6" d="M161.3,1205.05l-2-2.9h1.86l1.06,1.64h.09l1-1.64h1.92l-2.07,2.9,2.07,3h-1.85l-1.11-1.68h-.08l-1.07,1.68h-1.86Z" transform="translate(-91 -63)"/><path class="cls-6" d="M167.47,1205.05l-2-2.9h1.86l1.07,1.64h.09l1-1.64h1.92l-2.06,2.9,2.06,3h-1.84l-1.11-1.68h-.08l-1.07,1.68h-1.86Z" transform="translate(-91 -63)"/><path class="cls-6" d="M173.64,1205.05l-2-2.9h1.86l1.07,1.64h.08l1-1.64h1.92l-2.06,2.9,2.06,3h-1.85l-1.1-1.68h-.08l-1.07,1.68H171.6Z" transform="translate(-91 -63)"/><path class="cls-6" d="M179.81,1205.05l-2-2.9h1.86l1.07,1.64h.08l1-1.64h1.92l-2.06,2.9,2.06,3h-1.85l-1.1-1.68h-.09l-1.06,1.68h-1.86Z" transform="translate(-91 -63)"/><path class="cls-6" d="M186,1205.05l-2-2.9h1.86l1.06,1.64H187l1-1.64h1.92l-2.07,2.9,2.07,3h-1.85l-1.11-1.68h-.08l-1.07,1.68h-1.86Z" transform="translate(-91 -63)"/><path class="cls-6" d="M192.14,1205.05l-2-2.9H192l1.07,1.64h.09l1-1.64h1.91l-2.06,2.9,2.06,3h-1.84l-1.11-1.68H193L192,1208H190.1Z" transform="translate(-91 -63)"/><path class="cls-6" d="M198.31,1205.05l-2-2.9h1.86l1.07,1.64h.08l1-1.64h1.92l-2.06,2.9,2.06,3h-1.85l-1.1-1.68h-.08l-1.07,1.68h-1.86Z" transform="translate(-91 -63)"/><path class="cls-6" d="M204.48,1205.05l-2-2.9h1.86l1.07,1.64h.08l1-1.64h1.92l-2.06,2.9,2.06,3h-1.85l-1.1-1.68h-.09L204.3,1208h-1.86Z" transform="translate(-91 -63)"/></g><path class="cls-9" d="M295.69,1191.5H261.8a5.57,5.57,0,0,1-5.56-5.56v-24.89a5.57,5.57,0,0,1,5.56-5.56h33.89a5.57,5.57,0,0,1,5.56,5.56v24.89A5.57,5.57,0,0,1,295.69,1191.5Z" transform="translate(-91 -63)"/><g class="cls-2"><path class="cls-6" d="M249.5,1203.55l-2.6-4.11h2l1.67,2.81h.1l1.67-2.81h2l-2.6,4.11,2.82,4.48h-2l-1.87-3.09h-.1L248.7,1208h-2Z" transform="translate(-91 -63)"/><path class="cls-6" d="M256.88,1205.05l-2-2.9h1.86l1.07,1.64h.08l1-1.64h1.92l-2.07,2.9,2.07,3H259l-1.1-1.68h-.09L256.7,1208h-1.86Z" transform="translate(-91 -63)"/><path class="cls-6" d="M263.05,1205.05l-2-2.9h1.86l1.06,1.64h.09l1-1.64H267l-2.07,2.9,2.07,3h-1.85l-1.11-1.68h-.08l-1.07,1.68H261Z" transform="translate(-91 -63)"/><path class="cls-6" d="M269.22,1205.05l-2-2.9h1.86l1.07,1.64h.09l1-1.64h1.92l-2.06,2.9,2.06,3H271.3l-1.11-1.68h-.08L269,1208h-1.86Z" transform="translate(-91 -63)"/><path class="cls-6" d="M275.39,1205.05l-2-2.9h1.86l1.07,1.64h.08l1-1.64h1.92l-2.06,2.9,2.06,3h-1.85l-1.1-1.68h-.08l-1.07,1.68h-1.86Z" transform="translate(-91 -63)"/><path class="cls-6" d="M281.56,1205.05l-2-2.9h1.86l1.07,1.64h.08l1-1.64h1.92l-2.06,2.9,2.06,3h-1.85l-1.1-1.68h-.09l-1.06,1.68h-1.86Z" transform="translate(-91 -63)"/><path class="cls-6" d="M287.72,1205.05l-2-2.9h1.86l1.06,1.64h.09l1-1.64h1.92l-2.07,2.9,2.07,3H289.8l-1.11-1.68h-.08l-1.07,1.68h-1.86Z" transform="translate(-91 -63)"/><path class="cls-6" d="M293.89,1205.05l-2-2.9h1.85l1.07,1.64h.09l1-1.64h1.91l-2.06,2.9,2.06,3H296l-1.11-1.68h-.08l-1.07,1.68h-1.86Z" transform="translate(-91 -63)"/><path class="cls-6" d="M300.06,1205.05l-2-2.9h1.86l1.07,1.64h.08l1-1.64H304l-2.06,2.9,2.06,3h-1.85l-1.1-1.68H301l-1.07,1.68H298Z" transform="translate(-91 -63)"/><path class="cls-6" d="M306.23,1205.05l-2-2.9h1.86l1.07,1.64h.08l1-1.64h1.92l-2.06,2.9,2.06,3H308.3l-1.1-1.68h-.09l-1.06,1.68h-1.86Z" transform="translate(-91 -63)"/></g><path class="cls-9" d="M397.44,1191.5H363.55a5.57,5.57,0,0,1-5.56-5.56v-24.89a5.57,5.57,0,0,1,5.56-5.56h33.89a5.57,5.57,0,0,1,5.56,5.56v24.89A5.57,5.57,0,0,1,397.44,1191.5Z" transform="translate(-91 -63)"/><g class="cls-2"><path class="cls-6" d="M351.25,1203.55l-2.6-4.11h2l1.67,2.81h.1l1.67-2.81h2l-2.6,4.11,2.82,4.48h-2l-1.87-3.09h-.1l-1.87,3.09h-2Z" transform="translate(-91 -63)"/><path class="cls-6" d="M358.63,1205.05l-2-2.9h1.86l1.07,1.64h.08l1-1.64h1.92l-2.07,2.9,2.07,3h-1.85l-1.1-1.68h-.09l-1.07,1.68h-1.86Z" transform="translate(-91 -63)"/><path class="cls-6" d="M364.8,1205.05l-2-2.9h1.86l1.06,1.64h.09l1-1.64h1.92l-2.07,2.9,2.07,3h-1.85l-1.11-1.68h-.08l-1.07,1.68h-1.86Z" transform="translate(-91 -63)"/><path class="cls-6" d="M371,1205.05l-2-2.9h1.86l1.07,1.64H372l1-1.64h1.92l-2.06,2.9,2.06,3h-1.84l-1.11-1.68h-.08l-1.07,1.68h-1.86Z" transform="translate(-91 -63)"/><path class="cls-6" d="M377.14,1205.05l-2-2.9H377l1.07,1.64h.08l1-1.64h1.92l-2.06,2.9,2.06,3h-1.85l-1.1-1.68H378L377,1208H375.1Z" transform="translate(-91 -63)"/><path class="cls-6" d="M383.31,1205.05l-2-2.9h1.86l1.07,1.64h.08l1-1.64h1.92l-2.06,2.9,2.06,3h-1.85l-1.1-1.68h-.09l-1.06,1.68h-1.86Z" transform="translate(-91 -63)"/><path class="cls-6" d="M389.47,1205.05l-2-2.9h1.86l1.06,1.64h.09l1-1.64h1.92l-2.07,2.9,2.07,3h-1.85l-1.1-1.68h-.09l-1.07,1.68h-1.86Z" transform="translate(-91 -63)"/><path class="cls-6" d="M395.64,1205.05l-2-2.9h1.87l1.06,1.64h.09l1-1.64h1.92l-2.07,2.9,2.07,3h-1.85l-1.11-1.68h-.08l-1.07,1.68H393.6Z" transform="translate(-91 -63)"/><path class="cls-6" d="M401.81,1205.05l-2-2.9h1.86l1.07,1.64h.08l1-1.64h1.92l-2.06,2.9,2.06,3h-1.85l-1.1-1.68h-.08l-1.07,1.68h-1.86Z" transform="translate(-91 -63)"/><path class="cls-6" d="M408,1205.05l-2-2.9h1.86l1.07,1.64H409l1-1.64h1.92l-2.06,2.9,2.06,3h-1.85l-1.1-1.68h-.08L407.8,1208h-1.86Z" transform="translate(-91 -63)"/></g><path class="cls-9" d="M499.19,1191.5H465.3a5.57,5.57,0,0,1-5.56-5.56v-24.89a5.57,5.57,0,0,1,5.56-5.56h33.89a5.57,5.57,0,0,1,5.56,5.56v24.89A5.57,5.57,0,0,1,499.19,1191.5Z" transform="translate(-91 -63)"/><g class="cls-2"><path class="cls-6" d="M453,1203.55l-2.6-4.11h2l1.67,2.81h.1l1.67-2.81h2l-2.6,4.11,2.82,4.48h-2l-1.87-3.09h-.1L452.2,1208h-2Z" transform="translate(-91 -63)"/><path class="cls-6" d="M460.38,1205.05l-2-2.9h1.86l1.06,1.64h.09l1-1.64h1.92l-2.07,2.9,2.07,3h-1.85l-1.1-1.68h-.09L460.2,1208h-1.86Z" transform="translate(-91 -63)"/><path class="cls-6" d="M466.55,1205.05l-2-2.9h1.86l1.06,1.64h.09l1-1.64h1.92l-2.07,2.9,2.07,3h-1.85l-1.11-1.68h-.08l-1.07,1.68h-1.86Z" transform="translate(-91 -63)"/><path class="cls-6" d="M472.72,1205.05l-2-2.9h1.86l1.07,1.64h.08l1-1.64h1.92l-2.06,2.9,2.06,3h-1.85l-1.1-1.68h-.08l-1.07,1.68h-1.86Z" transform="translate(-91 -63)"/><path class="cls-6" d="M478.89,1205.05l-2-2.9h1.86l1.07,1.64h.08l1-1.64h1.92l-2.06,2.9,2.06,3H481l-1.1-1.68h-.08l-1.07,1.68h-1.86Z" transform="translate(-91 -63)"/><path class="cls-6" d="M485.06,1205.05l-2-2.9h1.86l1.07,1.64h.08l1-1.64H489l-2.06,2.9,2.06,3h-1.85l-1.1-1.68h-.09l-1.06,1.68H483Z" transform="translate(-91 -63)"/><path class="cls-6" d="M491.22,1205.05l-2-2.9h1.86l1.06,1.64h.09l1-1.64h1.92l-2.07,2.9,2.07,3H493.3l-1.11-1.68h-.08L491,1208h-1.86Z" transform="translate(-91 -63)"/><path class="cls-6" d="M497.39,1205.05l-2-2.9h1.85l1.07,1.64h.09l1-1.64h1.92l-2.06,2.9,2.06,3h-1.84l-1.11-1.68h-.08l-1.07,1.68h-1.86Z" transform="translate(-91 -63)"/><path class="cls-6" d="M503.56,1205.05l-2-2.9h1.86l1.07,1.64h.08l1-1.64h1.92l-2.06,2.9,2.06,3h-1.85l-1.1-1.68h-.08l-1.07,1.68h-1.86Z" transform="translate(-91 -63)"/><path class="cls-6" d="M509.73,1205.05l-2-2.9h1.86l1.07,1.64h.08l1-1.64h1.92l-2.06,2.9,2.06,3H511.8l-1.1-1.68h-.09l-1.06,1.68h-1.86Z" transform="translate(-91 -63)"/></g><path class="cls-9" d="M600.94,1191.5H567.05a5.57,5.57,0,0,1-5.56-5.56v-24.89a5.57,5.57,0,0,1,5.56-5.56h33.89a5.57,5.57,0,0,1,5.56,5.56v24.89A5.57,5.57,0,0,1,600.94,1191.5Z" transform="translate(-91 -63)"/><g class="cls-2"><path class="cls-6" d="M554.75,1203.55l-2.6-4.11h2l1.67,2.81h.1l1.67-2.81h2l-2.6,4.11,2.82,4.48h-2l-1.87-3.09h-.1L554,1208h-2Z" transform="translate(-91 -63)"/><path class="cls-6" d="M562.13,1205.05l-2-2.9H562l1.06,1.64h.09l1-1.64h1.92l-2.07,2.9,2.07,3h-1.85l-1.1-1.68H563L562,1208h-1.86Z" transform="translate(-91 -63)"/><path class="cls-6" d="M568.3,1205.05l-2-2.9h1.86l1.06,1.64h.09l1-1.64h1.92l-2.07,2.9,2.07,3h-1.85l-1.11-1.68h-.08l-1.07,1.68h-1.86Z" transform="translate(-91 -63)"/><path class="cls-6" d="M574.47,1205.05l-2-2.9h1.86l1.07,1.64h.08l1-1.64h1.92l-2.06,2.9,2.06,3h-1.85l-1.1-1.68h-.08l-1.07,1.68h-1.86Z" transform="translate(-91 -63)"/><path class="cls-6" d="M580.64,1205.05l-2-2.9h1.86l1.07,1.64h.08l1-1.64h1.92l-2.06,2.9,2.06,3h-1.85l-1.1-1.68h-.08l-1.07,1.68H578.6Z" transform="translate(-91 -63)"/><path class="cls-6" d="M586.81,1205.05l-2-2.9h1.86l1.07,1.64h.08l1-1.64h1.92l-2.06,2.9,2.06,3h-1.85l-1.1-1.68h-.09l-1.07,1.68h-1.85Z" transform="translate(-91 -63)"/><path class="cls-6" d="M593,1205.05l-2-2.9h1.86l1.06,1.64H594l1-1.64h1.92l-2.07,2.9,2.07,3h-1.85l-1.1-1.68h-.09l-1.07,1.68h-1.86Z" transform="translate(-91 -63)"/><path class="cls-6" d="M599.14,1205.05l-2-2.9H599l1.07,1.64h.09l1-1.64h1.92l-2.06,2.9,2.06,3h-1.84l-1.11-1.68H600L599,1208H597.1Z" transform="translate(-91 -63)"/><path class="cls-6" d="M605.31,1205.05l-2-2.9h1.86l1.07,1.64h.08l1-1.64h1.92l-2.06,2.9,2.06,3h-1.85l-1.1-1.68h-.08l-1.07,1.68h-1.86Z" transform="translate(-91 -63)"/><path class="cls-6" d="M611.48,1205.05l-2-2.9h1.86l1.07,1.64h.08l1-1.64h1.92l-2.06,2.9,2.06,3h-1.85l-1.1-1.68h-.08L611.3,1208h-1.86Z" transform="translate(-91 -63)"/></g><path class="cls-9" d="M229.94,419.5H196.05a5.57,5.57,0,0,1-5.56-5.56V389.05a5.57,5.57,0,0,1,5.56-5.56h33.89a5.57,5.57,0,0,1,5.56,5.56v24.89A5.57,5.57,0,0,1,229.94,419.5Z" transform="translate(-91 -63)"/><path class="cls-9" d="M223.94,306.5H190.05a5.57,5.57,0,0,1-5.56-5.56V276.05a5.57,5.57,0,0,1,5.56-5.56h33.89a5.57,5.57,0,0,1,5.56,5.56v24.89A5.57,5.57,0,0,1,223.94,306.5Z" transform="translate(-91 -63)"/><g class="cls-2"><path class="cls-6" d="M264.69,299.66h-4.85L270.63,286l-10.16-12.77h4.94l7.82,10.11h.18l7.82-10.11h4.94L276,286l10.78,13.65H282l-8.54-10.81h-.18Z" transform="translate(-91 -63)"/><path class="cls-6" d="M300.51,290.47l7.86,9.19h-4.85L298.08,293l-5.34,6.68h-4.86l7.78-9.19-7.6-8.89h4.68l5.43,6.38,5.17-6.38h4.85Z" transform="translate(-91 -63)"/><path class="cls-6" d="M321.72,290.47l7.86,9.19h-4.85L319.29,293,314,299.66h-4.86l7.78-9.19-7.6-8.89H314l5.43,6.38,5.17-6.38h4.85Z" transform="translate(-91 -63)"/><path class="cls-6" d="M342.93,290.47l7.86,9.19h-4.85L340.5,293l-5.35,6.68H330.3l7.78-9.19-7.6-8.89h4.67l5.44,6.38,5.17-6.38h4.85Z" transform="translate(-91 -63)"/><path class="cls-6" d="M364.14,290.47l7.86,9.19h-4.85L361.71,293l-5.35,6.68h-4.85l7.78-9.19-7.6-8.89h4.67L361.8,288l5.17-6.38h4.85Z" transform="translate(-91 -63)"/><path class="cls-6" d="M395.23,290.47l7.87,9.19h-4.86L392.81,293l-5.35,6.68h-4.85l7.77-9.19-7.59-8.89h4.67L392.9,288l5.16-6.38h4.86Z" transform="translate(-91 -63)"/><path class="cls-6" d="M416.44,290.47l7.87,9.19h-4.85L414,293l-5.35,6.68h-4.85l7.77-9.19L404,281.58h4.67l5.44,6.38,5.17-6.38h4.85Z" transform="translate(-91 -63)"/><path class="cls-6" d="M437.65,290.47l7.87,9.19h-4.86L435.23,293l-5.35,6.68H425l7.77-9.19-7.59-8.89h4.67l5.44,6.38,5.16-6.38h4.86Z" transform="translate(-91 -63)"/><path class="cls-6" d="M458.86,290.47l7.87,9.19h-4.86L456.44,293l-5.35,6.68h-4.85l7.77-9.19-7.59-8.89h4.67l5.44,6.38,5.16-6.38h4.86Z" transform="translate(-91 -63)"/><path class="cls-6" d="M480.07,290.47l7.87,9.19h-4.86L477.65,293l-5.35,6.68h-4.85l7.77-9.19-7.6-8.89h4.68l5.44,6.38,5.16-6.38h4.86Z" transform="translate(-91 -63)"/><path class="cls-6" d="M501.28,290.47l7.87,9.19h-4.86L498.86,293l-5.35,6.68h-4.85l7.77-9.19-7.6-8.89h4.68L499,288l5.16-6.38H509Z" transform="translate(-91 -63)"/><path class="cls-6" d="M522.49,290.47l7.87,9.19H525.5L520.07,293l-5.35,6.68h-4.85l7.77-9.19-7.6-8.89h4.68l5.44,6.38,5.16-6.38h4.86Z" transform="translate(-91 -63)"/></g><g class="cls-2"><path class="cls-6" d="M264.69,413.66h-4.85L270.63,400l-10.16-12.77h4.94l7.82,10.11h.18l7.82-10.11h4.94L276,400l10.78,13.65H282l-8.54-10.81h-.18Z" transform="translate(-91 -63)"/><path class="cls-6" d="M300.51,404.47l7.86,9.19h-4.85L298.08,407l-5.34,6.68h-4.86l7.78-9.19-7.6-8.89h4.68l5.43,6.38,5.17-6.38h4.85Z" transform="translate(-91 -63)"/><path class="cls-6" d="M321.72,404.47l7.86,9.19h-4.85L319.29,407,314,413.66h-4.86l7.78-9.19-7.6-8.89H314l5.43,6.38,5.17-6.38h4.85Z" transform="translate(-91 -63)"/><path class="cls-6" d="M342.93,404.47l7.86,9.19h-4.85L340.5,407l-5.35,6.68H330.3l7.78-9.19-7.6-8.89h4.67l5.44,6.38,5.17-6.38h4.85Z" transform="translate(-91 -63)"/><path class="cls-6" d="M364.14,404.47l7.86,9.19h-4.85L361.71,407l-5.35,6.68h-4.85l7.78-9.19-7.6-8.89h4.67L361.8,402l5.17-6.38h4.85Z" transform="translate(-91 -63)"/><path class="cls-6" d="M395.23,404.47l7.87,9.19h-4.86L392.81,407l-5.35,6.68h-4.85l7.77-9.19-7.59-8.89h4.67L392.9,402l5.16-6.38h4.86Z" transform="translate(-91 -63)"/><path class="cls-6" d="M416.44,404.47l7.87,9.19h-4.85L414,407l-5.35,6.68h-4.85l7.77-9.19L404,395.58h4.67l5.44,6.38,5.17-6.38h4.85Z" transform="translate(-91 -63)"/><path class="cls-6" d="M437.65,404.47l7.87,9.19h-4.86L435.23,407l-5.35,6.68H425l7.77-9.19-7.59-8.89h4.67l5.44,6.38,5.16-6.38h4.86Z" transform="translate(-91 -63)"/><path class="cls-6" d="M458.86,404.47l7.87,9.19h-4.86L456.44,407l-5.35,6.68h-4.85l7.77-9.19-7.59-8.89h4.67l5.44,6.38,5.16-6.38h4.86Z" transform="translate(-91 -63)"/><path class="cls-6" d="M480.07,404.47l7.87,9.19h-4.86L477.65,407l-5.35,6.68h-4.85l7.77-9.19-7.6-8.89h4.68l5.44,6.38,5.16-6.38h4.86Z" transform="translate(-91 -63)"/><path class="cls-6" d="M501.28,404.47l7.87,9.19h-4.86L498.86,407l-5.35,6.68h-4.85l7.77-9.19-7.6-8.89h4.68L499,402l5.16-6.38H509Z" transform="translate(-91 -63)"/><path class="cls-6" d="M522.49,404.47l7.87,9.19H525.5L520.07,407l-5.35,6.68h-4.85l7.77-9.19-7.6-8.89h4.68l5.44,6.38,5.16-6.38h4.86Z" transform="translate(-91 -63)"/></g><path class="cls-5" d="M608.88,1073.08h-467a12,12,0,0,1-12-12V882.58a12,12,0,0,1,12-12h467a12,12,0,0,1,12,12v178.5A12,12,0,0,1,608.88,1073.08Z" transform="translate(-91 -63)"/><path class="cls-6" d="M608.79,1068.13H142a8.11,8.11,0,0,1-8.09-8.09V882.67a8.11,8.11,0,0,1,8.09-8.09H608.79a8.11,8.11,0,0,1,8.09,8.09V1060A8.11,8.11,0,0,1,608.79,1068.13Z" transform="translate(-91 -63)"/><g class="cls-2"><path d="M133.1,840.56l-5.65-8.9h4.35l3.61,6.09h.21l3.61-6.09h4.34l-5.64,8.9,6.11,9.72h-4.37l-4-6.71h-.21l-4.06,6.71H127Z" transform="translate(-91 -63)"/><path d="M149.09,843.81l-4.37-6.27h4l2.31,3.54h.18l2.19-3.54h4.16l-4.47,6.27,4.47,6.47h-4l-2.39-3.64H151l-2.31,3.64h-4Z" transform="translate(-91 -63)"/><path d="M162.45,843.81l-4.37-6.27h4l2.32,3.54h.18l2.18-3.54H171l-4.47,6.27,4.47,6.47h-4l-2.39-3.64h-.19l-2.31,3.64h-4Z" transform="translate(-91 -63)"/><path d="M175.81,843.81l-4.36-6.27h4l2.31,3.54H178l2.19-3.54h4.16l-4.48,6.27,4.48,6.47h-4l-2.39-3.64h-.18l-2.32,3.64h-4Z" transform="translate(-91 -63)"/><path d="M189.18,843.81l-4.37-6.27h4l2.31,3.54h.19l2.18-3.54h4.16l-4.47,6.27,4.47,6.47h-4l-2.4-3.64h-.18l-2.31,3.64h-4Z" transform="translate(-91 -63)"/><path d="M202.54,843.81l-4.37-6.27h4l2.32,3.54h.18l2.18-3.54H211l-4.47,6.27,4.47,6.47h-4l-2.39-3.64h-.19l-2.31,3.64h-4Z" transform="translate(-91 -63)"/><path d="M215.9,843.81l-4.36-6.27h4l2.31,3.54h.18l2.19-3.54h4.16l-4.47,6.27,4.47,6.47h-4L218,846.64h-.18l-2.32,3.64h-4Z" transform="translate(-91 -63)"/><path d="M235,843.81l-4.37-6.27h4l2.31,3.54h.19l2.18-3.54h4.16L239,843.81l4.47,6.47h-4l-2.4-3.64h-.18l-2.31,3.64h-4Z" transform="translate(-91 -63)"/><path d="M248.35,843.81,244,837.54h4l2.32,3.54h.18l2.18-3.54h4.16l-4.47,6.27,4.47,6.47h-4l-2.39-3.64h-.18L248,850.28h-4Z" transform="translate(-91 -63)"/><path d="M261.72,843.81l-4.37-6.27h4l2.31,3.54h.18l2.19-3.54h4.16l-4.47,6.27,4.47,6.47h-4l-2.39-3.64h-.18l-2.31,3.64h-4Z" transform="translate(-91 -63)"/><path d="M275.08,843.81l-4.37-6.27h4l2.32,3.54h.18l2.18-3.54h4.16l-4.47,6.27,4.47,6.47h-4l-2.39-3.64H277l-2.31,3.64h-4Z" transform="translate(-91 -63)"/><path d="M288.44,843.81l-4.36-6.27h4l2.31,3.54h.18l2.19-3.54H297l-4.48,6.27,4.48,6.47h-4l-2.39-3.64h-.18l-2.32,3.64h-4Z" transform="translate(-91 -63)"/><path d="M307.53,843.81l-4.37-6.27h4l2.31,3.54h.19l2.18-3.54H316l-4.47,6.27,4.47,6.47h-4l-2.39-3.64h-.18l-2.31,3.64h-4Z" transform="translate(-91 -63)"/><path d="M320.89,843.81l-4.37-6.27h4l2.32,3.54h.18l2.18-3.54h4.16l-4.47,6.27,4.47,6.47h-4L323,846.64h-.19l-2.31,3.64h-4Z" transform="translate(-91 -63)"/><path d="M334.25,843.81l-4.36-6.27h4l2.31,3.54h.18l2.19-3.54h4.16l-4.48,6.27,4.48,6.47h-4l-2.39-3.64h-.18l-2.32,3.64h-4Z" transform="translate(-91 -63)"/><path d="M347.62,843.81l-4.37-6.27h4l2.31,3.54h.19l2.18-3.54h4.16l-4.47,6.27,4.47,6.47h-4l-2.4-3.64h-.18l-2.31,3.64h-4Z" transform="translate(-91 -63)"/><path d="M361,843.81l-4.37-6.27h4l2.32,3.54h.18l2.18-3.54h4.16L365,843.81l4.47,6.47h-4l-2.39-3.64h-.18l-2.32,3.64h-4Z" transform="translate(-91 -63)"/><path d="M380.07,843.81l-4.37-6.27h4l2.31,3.54h.18l2.19-3.54h4.16l-4.47,6.27,4.47,6.47h-4l-2.39-3.64H382l-2.31,3.64h-4Z" transform="translate(-91 -63)"/><path d="M393.43,843.81l-4.37-6.27h4l2.32,3.54h.18l2.18-3.54h4.16l-4.47,6.27,4.47,6.47h-4l-2.39-3.64h-.19L393,850.28h-4Z" transform="translate(-91 -63)"/><path d="M406.79,843.81l-4.36-6.27h4l2.31,3.54H409l2.19-3.54h4.15l-4.47,6.27,4.47,6.47h-4l-2.39-3.64h-.18l-2.32,3.64h-4Z" transform="translate(-91 -63)"/><path d="M420.16,843.81l-4.37-6.27h4l2.31,3.54h.19l2.18-3.54h4.16l-4.47,6.27,4.47,6.47h-4l-2.4-3.64h-.18l-2.31,3.64h-4Z" transform="translate(-91 -63)"/><path d="M433.52,843.81l-4.37-6.27h4l2.32,3.54h.18l2.18-3.54H442l-4.47,6.27,4.47,6.47h-4l-2.39-3.64h-.18l-2.32,3.64h-4Z" transform="translate(-91 -63)"/><path d="M446.88,843.81l-4.36-6.27h4l2.31,3.54H449l2.19-3.54h4.16l-4.47,6.27,4.47,6.47h-4L449,846.64h-.18l-2.32,3.64h-4Z" transform="translate(-91 -63)"/></g><g class="cls-2"><path d="M157.5,933.8h-2.59l5.76-8.88-5.42-8.31h2.64l4.17,6.58h.1l4.18-6.58H169l-5.43,8.31,5.76,8.88h-2.59l-4.56-7h-.1Z" transform="translate(-91 -63)"/><path d="M176.63,927.82l4.2,6h-2.59l-2.9-4.35-2.86,4.35h-2.59l4.15-6L170,922h2.5l2.9,4.15,2.76-4.15h2.6Z" transform="translate(-91 -63)"/><path d="M188,927.82l4.2,6h-2.59l-2.91-4.35-2.85,4.35h-2.59l4.15-6L181.31,922h2.5l2.9,4.15,2.76-4.15h2.59Z" transform="translate(-91 -63)"/><path d="M199.29,927.82l4.2,6H200.9L198,929.45l-2.85,4.35h-2.6l4.16-6L192.64,922h2.5l2.9,4.15L200.8,922h2.59Z" transform="translate(-91 -63)"/><path d="M210.61,927.82l4.2,6h-2.59l-2.9-4.35-2.86,4.35h-2.59l4.15-6L204,922h2.49l2.91,4.15,2.76-4.15h2.59Z" transform="translate(-91 -63)"/><path d="M221.94,927.82l4.2,6h-2.59l-2.9-4.35-2.86,4.35H215.2l4.15-6L215.29,922h2.5l2.9,4.15,2.77-4.15h2.59Z" transform="translate(-91 -63)"/><path d="M233.27,927.82l4.2,6h-2.59L232,929.45l-2.85,4.35h-2.59l4.15-6L226.62,922h2.5l2.9,4.15,2.76-4.15h2.59Z" transform="translate(-91 -63)"/><path d="M244.6,927.82l4.2,6h-2.59l-2.91-4.35-2.85,4.35h-2.6l4.16-6L238,922h2.5l2.9,4.15,2.76-4.15h2.59Z" transform="translate(-91 -63)"/><path d="M255.93,927.82l4.2,6h-2.6l-2.9-4.35-2.86,4.35h-2.59l4.15-6L249.28,922h2.49l2.91,4.15,2.76-4.15H260Z" transform="translate(-91 -63)"/></g><g class="cls-2"><path d="M157.5,973.8h-2.59l5.76-8.88-5.42-8.31h2.64l4.17,6.58h.1l4.18-6.58H169l-5.43,8.31,5.76,8.88h-2.59l-4.56-7h-.1Z" transform="translate(-91 -63)"/><path d="M176.63,967.82l4.2,6h-2.59l-2.9-4.35-2.86,4.35h-2.59l4.15-6L170,962h2.5l2.9,4.15,2.76-4.15h2.6Z" transform="translate(-91 -63)"/><path d="M188,967.82l4.2,6h-2.59l-2.91-4.35-2.85,4.35h-2.59l4.15-6L181.31,962h2.5l2.9,4.15,2.76-4.15h2.59Z" transform="translate(-91 -63)"/><path d="M199.29,967.82l4.2,6H200.9L198,969.45l-2.85,4.35h-2.6l4.16-6L192.64,962h2.5l2.9,4.15L200.8,962h2.59Z" transform="translate(-91 -63)"/><path d="M210.61,967.82l4.2,6h-2.59l-2.9-4.35-2.86,4.35h-2.59l4.15-6L204,962h2.49l2.91,4.15,2.76-4.15h2.59Z" transform="translate(-91 -63)"/><path d="M221.94,967.82l4.2,6h-2.59l-2.9-4.35-2.86,4.35H215.2l4.15-6L215.29,962h2.5l2.9,4.15,2.77-4.15h2.59Z" transform="translate(-91 -63)"/><path d="M233.27,967.82l4.2,6h-2.59L232,969.45l-2.85,4.35h-2.59l4.15-6L226.62,962h2.5l2.9,4.15,2.76-4.15h2.59Z" transform="translate(-91 -63)"/><path d="M244.6,967.82l4.2,6h-2.59l-2.91-4.35-2.85,4.35h-2.6l4.16-6L238,962h2.5l2.9,4.15,2.76-4.15h2.59Z" transform="translate(-91 -63)"/><path d="M255.93,967.82l4.2,6h-2.6l-2.9-4.35-2.86,4.35h-2.59l4.15-6L249.28,962h2.49l2.91,4.15,2.76-4.15H260Z" transform="translate(-91 -63)"/></g><g class="cls-2"><path d="M157.5,1013.8h-2.59l5.76-8.88-5.42-8.31h2.64l4.17,6.58h.1l4.18-6.58H169l-5.43,8.31,5.76,8.88h-2.59l-4.56-7h-.1Z" transform="translate(-91 -63)"/><path d="M176.63,1007.82l4.2,6h-2.59l-2.9-4.35-2.86,4.35h-2.59l4.15-6L170,1002h2.5l2.9,4.15,2.76-4.15h2.6Z" transform="translate(-91 -63)"/><path d="M188,1007.82l4.2,6h-2.59l-2.91-4.35-2.85,4.35h-2.59l4.15-6-4.06-5.78h2.5l2.9,4.15,2.76-4.15h2.59Z" transform="translate(-91 -63)"/><path d="M199.29,1007.82l4.2,6H200.9l-2.91-4.35-2.85,4.35h-2.6l4.16-6-4.06-5.78h2.5l2.9,4.15,2.76-4.15h2.59Z" transform="translate(-91 -63)"/><path d="M210.61,1007.82l4.2,6h-2.59l-2.9-4.35-2.86,4.35h-2.59l4.15-6L204,1002h2.49l2.91,4.15,2.76-4.15h2.59Z" transform="translate(-91 -63)"/><path d="M221.94,1007.82l4.2,6h-2.59l-2.9-4.35-2.86,4.35H215.2l4.15-6-4.06-5.78h2.5l2.9,4.15,2.77-4.15h2.59Z" transform="translate(-91 -63)"/><path d="M233.27,1007.82l4.2,6h-2.59l-2.91-4.35-2.85,4.35h-2.59l4.15-6-4.06-5.78h2.5l2.9,4.15,2.76-4.15h2.59Z" transform="translate(-91 -63)"/><path d="M244.6,1007.82l4.2,6h-2.59l-2.91-4.35-2.85,4.35h-2.6l4.16-6L238,1002h2.5l2.9,4.15,2.76-4.15h2.59Z" transform="translate(-91 -63)"/><path d="M255.93,1007.82l4.2,6h-2.6l-2.9-4.35-2.86,4.35h-2.59l4.15-6-4.05-5.78h2.49l2.91,4.15,2.76-4.15H260Z" transform="translate(-91 -63)"/></g><g class="cls-2"><path d="M478.5,933.8h-2.59l5.76-8.88-5.42-8.31h2.64l4.17,6.58h.1l4.18-6.58H490l-5.43,8.31,5.76,8.88h-2.59l-4.56-7h-.1Z" transform="translate(-91 -63)"/><path d="M497.63,927.82l4.2,6h-2.59l-2.9-4.35-2.86,4.35h-2.59l4.15-6L491,922h2.5l2.9,4.15,2.76-4.15h2.6Z" transform="translate(-91 -63)"/><path d="M509,927.82l4.2,6h-2.59l-2.91-4.35-2.85,4.35h-2.6l4.16-6L502.31,922h2.5l2.9,4.15,2.76-4.15h2.59Z" transform="translate(-91 -63)"/><path d="M520.29,927.82l4.2,6H521.9L519,929.45l-2.85,4.35h-2.6l4.16-6L513.64,922h2.5l2.9,4.15L521.8,922h2.59Z" transform="translate(-91 -63)"/><path d="M531.62,927.82l4.19,6h-2.59l-2.9-4.35-2.86,4.35h-2.59l4.15-6L525,922h2.49l2.91,4.15,2.76-4.15h2.59Z" transform="translate(-91 -63)"/><path d="M542.94,927.82l4.2,6h-2.59l-2.9-4.35-2.86,4.35H536.2l4.15-6L536.29,922h2.5l2.91,4.15,2.76-4.15h2.59Z" transform="translate(-91 -63)"/><path d="M554.27,927.82l4.2,6h-2.59L553,929.45l-2.85,4.35h-2.59l4.15-6L547.62,922h2.5l2.9,4.15,2.76-4.15h2.59Z" transform="translate(-91 -63)"/><path d="M565.6,927.82l4.2,6h-2.59l-2.91-4.35-2.85,4.35h-2.6l4.16-6L559,922h2.5l2.9,4.15,2.76-4.15h2.59Z" transform="translate(-91 -63)"/><path d="M576.93,927.82l4.19,6h-2.59l-2.9-4.35-2.86,4.35h-2.59l4.15-6L570.28,922h2.49l2.91,4.15,2.76-4.15H581Z" transform="translate(-91 -63)"/></g><g class="cls-2"><path d="M478.5,973.8h-2.59l5.76-8.88-5.42-8.31h2.64l4.17,6.58h.1l4.18-6.58H490l-5.43,8.31,5.76,8.88h-2.59l-4.56-7h-.1Z" transform="translate(-91 -63)"/><path d="M497.63,967.82l4.2,6h-2.59l-2.9-4.35-2.86,4.35h-2.59l4.15-6L491,962h2.5l2.9,4.15,2.76-4.15h2.6Z" transform="translate(-91 -63)"/><path d="M509,967.82l4.2,6h-2.59l-2.91-4.35-2.85,4.35h-2.6l4.16-6L502.31,962h2.5l2.9,4.15,2.76-4.15h2.59Z" transform="translate(-91 -63)"/><path d="M520.29,967.82l4.2,6H521.9L519,969.45l-2.85,4.35h-2.6l4.16-6L513.64,962h2.5l2.9,4.15L521.8,962h2.59Z" transform="translate(-91 -63)"/><path d="M531.62,967.82l4.19,6h-2.59l-2.9-4.35-2.86,4.35h-2.59l4.15-6L525,962h2.49l2.91,4.15,2.76-4.15h2.59Z" transform="translate(-91 -63)"/><path d="M542.94,967.82l4.2,6h-2.59l-2.9-4.35-2.86,4.35H536.2l4.15-6L536.29,962h2.5l2.91,4.15,2.76-4.15h2.59Z" transform="translate(-91 -63)"/><path d="M554.27,967.82l4.2,6h-2.59L553,969.45l-2.85,4.35h-2.59l4.15-6L547.62,962h2.5l2.9,4.15,2.76-4.15h2.59Z" transform="translate(-91 -63)"/><path d="M565.6,967.82l4.2,6h-2.59l-2.91-4.35-2.85,4.35h-2.6l4.16-6L559,962h2.5l2.9,4.15,2.76-4.15h2.59Z" transform="translate(-91 -63)"/><path d="M576.93,967.82l4.19,6h-2.59l-2.9-4.35-2.86,4.35h-2.59l4.15-6L570.28,962h2.49l2.91,4.15,2.76-4.15H581Z" transform="translate(-91 -63)"/></g><g class="cls-2"><path d="M478.5,1013.8h-2.59l5.76-8.88-5.42-8.31h2.64l4.17,6.58h.1l4.18-6.58H490l-5.43,8.31,5.76,8.88h-2.59l-4.56-7h-.1Z" transform="translate(-91 -63)"/><path d="M497.63,1007.82l4.2,6h-2.59l-2.9-4.35-2.86,4.35h-2.59l4.15-6L491,1002h2.5l2.9,4.15,2.76-4.15h2.6Z" transform="translate(-91 -63)"/><path d="M509,1007.82l4.2,6h-2.59l-2.91-4.35-2.85,4.35h-2.6l4.16-6-4.06-5.78h2.5l2.9,4.15,2.76-4.15h2.59Z" transform="translate(-91 -63)"/><path d="M520.29,1007.82l4.2,6H521.9l-2.91-4.35-2.85,4.35h-2.6l4.16-6-4.06-5.78h2.5l2.9,4.15,2.76-4.15h2.59Z" transform="translate(-91 -63)"/><path d="M531.62,1007.82l4.19,6h-2.59l-2.9-4.35-2.86,4.35h-2.59l4.15-6-4-5.78h2.49l2.91,4.15,2.76-4.15h2.59Z" transform="translate(-91 -63)"/><path d="M542.94,1007.82l4.2,6h-2.59l-2.9-4.35-2.86,4.35H536.2l4.15-6-4.06-5.78h2.5l2.91,4.15,2.76-4.15h2.59Z" transform="translate(-91 -63)"/><path d="M554.27,1007.82l4.2,6h-2.59l-2.91-4.35-2.85,4.35h-2.59l4.15-6-4.06-5.78h2.5l2.9,4.15,2.76-4.15h2.59Z" transform="translate(-91 -63)"/><path d="M565.6,1007.82l4.2,6h-2.59l-2.91-4.35-2.85,4.35h-2.6l4.16-6L559,1002h2.5l2.9,4.15,2.76-4.15h2.59Z" transform="translate(-91 -63)"/><path d="M576.93,1007.82l4.19,6h-2.59l-2.9-4.35-2.86,4.35h-2.59l4.15-6-4.05-5.78h2.49l2.91,4.15,2.76-4.15H581Z" transform="translate(-91 -63)"/></g><ellipse class="cls-10" cx="279.75" cy="647" rx="236.75" ry="80.5"/></svg>