<?xml version="1.0" encoding="utf-8"?>
<!-- Generator: Adobe Illustrator 24.3.0, SVG Export Plug-In . SVG Version: 6.00 Build 0)  -->
<svg version="1.1" id="Capa_1" xmlns="http://www.w3.org/2000/svg" xmlns:xlink="http://www.w3.org/1999/xlink" x="0px" y="0px"
	 viewBox="0 0 955 425" style="enable-background:new 0 0 955 425;" xml:space="preserve">
<style type="text/css">
	.st0{fill:url(#SVGID_1_);}
	.st1{fill:url(#SVGID_2_);}
	.st2{fill:url(#SVGID_3_);}
	.st3{fill:url(#SVGID_4_);}
	.st4{fill:url(#SVGID_5_);}
	.st5{fill:url(#SVGID_6_);}
	.st6{fill:url(#SVGID_7_);}
	.st7{fill:url(#SVGID_8_);}
	.st8{fill:url(#SVGID_9_);}
	.st9{fill:url(#SVGID_10_);}
	.st10{fill:url(#SVGID_11_);}
	.st11{fill:url(#SVGID_12_);}
	.st12{fill:url(#SVGID_13_);}
	.st13{fill:url(#SVGID_14_);}
	.st14{fill:url(#SVGID_15_);}
	.st15{fill:url(#SVGID_16_);}
	.st16{fill:url(#SVGID_17_);}
	.st17{fill:url(#SVGID_18_);}
	.st18{fill:url(#SVGID_19_);}
</style>
<g id="Capa_2_1_">
	<g>
		
			<linearGradient id="SVGID_1_" gradientUnits="userSpaceOnUse" x1="673.6" y1="1753.4437" x2="793.0196" y2="1753.4437" gradientTransform="matrix(1 0 0 1 0 -1632.9438)">
			<stop  offset="0" style="stop-color:#008CFF"/>
			<stop  offset="0.2035" style="stop-color:#0091FF"/>
			<stop  offset="0.4428" style="stop-color:#009FFF"/>
			<stop  offset="0.7" style="stop-color:#01B7FF"/>
			<stop  offset="0.9684" style="stop-color:#01D8FF"/>
			<stop  offset="1" style="stop-color:#01DCFF"/>
		</linearGradient>
		<path class="st0" d="M673.6,163.6c0,0,65.5,1.1,117.8,7.4c0,0,15.5-49.2-49.4-101C742,69.9,729.1,116.5,673.6,163.6z"/>
		
			<linearGradient id="SVGID_2_" gradientUnits="userSpaceOnUse" x1="20.3" y1="1781.6975" x2="934.7" y2="1781.6975" gradientTransform="matrix(1 0 0 1 0 -1632.9438)">
			<stop  offset="0" style="stop-color:#008CFF"/>
			<stop  offset="0.2035" style="stop-color:#0091FF"/>
			<stop  offset="0.4428" style="stop-color:#009FFF"/>
			<stop  offset="0.7" style="stop-color:#01B7FF"/>
			<stop  offset="0.9684" style="stop-color:#01D8FF"/>
			<stop  offset="1" style="stop-color:#01DCFF"/>
		</linearGradient>
		<path class="st1" d="M612.6,182c0,0,47.6,33.4,71,44.2c0,0-58.5-5-146.7-72.1C452.2,89.7,431.4,15.2,431.4,15.2
			C330.2,124.1,425,222.3,425,222.3c-11,0.5-34.6-24.7-34.6-24.7C179,199.1,20.3,102.5,20.3,102.5
			c87.3,95.8,328.2,119.1,328.2,119.1c56,20,104.1,28.4,104.1,28.4l92.6,17.9c0,0,123.1,23.1,239.8,10.8s149.7-44.1,149.7-44.1
			S850.3,166.3,612.6,182z M841.9,234c0,0.7-20.1-14.4-18.6-23.5s30.2-3.9,30.2-3.9s-15.1,5.4-16.7,11.6
			C835.2,224.4,841.8,233.3,841.9,234z M873.1,235.6c-4.7,0-8.5-3.8-8.5-8.5s3.8-8.5,8.5-8.5s8.5,3.8,8.5,8.5
			S877.8,235.6,873.1,235.6z"/>
		
			<linearGradient id="SVGID_3_" gradientUnits="userSpaceOnUse" x1="833.3" y1="1776.7438" x2="877.5" y2="1776.7438" gradientTransform="matrix(1 0 0 1 0 -1632.9438)">
			<stop  offset="0" style="stop-color:#008CFF"/>
			<stop  offset="0.2035" style="stop-color:#0091FF"/>
			<stop  offset="0.4428" style="stop-color:#009FFF"/>
			<stop  offset="0.7" style="stop-color:#01B7FF"/>
			<stop  offset="0.9684" style="stop-color:#01D8FF"/>
			<stop  offset="1" style="stop-color:#01DCFF"/>
		</linearGradient>
		<circle class="st2" cx="855.4" cy="143.8" r="22.1"/>
		
			<linearGradient id="SVGID_4_" gradientUnits="userSpaceOnUse" x1="882.5" y1="1728.6438" x2="909.9" y2="1728.6438" gradientTransform="matrix(1 0 0 1 0 -1632.9438)">
			<stop  offset="0" style="stop-color:#008CFF"/>
			<stop  offset="0.2035" style="stop-color:#0091FF"/>
			<stop  offset="0.4428" style="stop-color:#009FFF"/>
			<stop  offset="0.7" style="stop-color:#01B7FF"/>
			<stop  offset="0.9684" style="stop-color:#01D8FF"/>
			<stop  offset="1" style="stop-color:#01DCFF"/>
		</linearGradient>
		<circle class="st3" cx="896.2" cy="95.7" r="13.7"/>
		
			<linearGradient id="SVGID_5_" gradientUnits="userSpaceOnUse" x1="854.4" y1="1693.6438" x2="877.6" y2="1693.6438" gradientTransform="matrix(1 0 0 1 0 -1632.9438)">
			<stop  offset="0" style="stop-color:#008CFF"/>
			<stop  offset="0.2035" style="stop-color:#0091FF"/>
			<stop  offset="0.4428" style="stop-color:#009FFF"/>
			<stop  offset="0.7" style="stop-color:#01B7FF"/>
			<stop  offset="0.9684" style="stop-color:#01D8FF"/>
			<stop  offset="1" style="stop-color:#01DCFF"/>
		</linearGradient>
		<circle class="st4" cx="866" cy="60.7" r="11.6"/>
	</g>
</g>
<g id="Capa_3">
	<g>
		<g>
			
				<linearGradient id="SVGID_6_" gradientUnits="userSpaceOnUse" x1="16.5639" y1="-586.65" x2="534.1566" y2="-586.65" gradientTransform="matrix(1 0 0 -1 0 -228)">
				<stop  offset="0" style="stop-color:#008CFF"/>
				<stop  offset="0.2035" style="stop-color:#0091FF"/>
				<stop  offset="0.4428" style="stop-color:#009FFF"/>
				<stop  offset="0.7" style="stop-color:#01B7FF"/>
				<stop  offset="0.9684" style="stop-color:#01D8FF"/>
				<stop  offset="1" style="stop-color:#01DCFF"/>
			</linearGradient>
			<path class="st5" d="M41,373.4h-9.8v16.8h-18v-63.1h29.1c5.8,0,10.8,0.9,15,2.8s7.5,4.6,9.8,8.1s3.5,7.6,3.5,12.4
				c0,4.6-1.1,8.5-3.2,11.9c-2.2,3.4-5.2,6.1-9.2,8l13.7,19.8H52.6L41,373.4z M49.6,343.6c-1.9-1.6-4.7-2.4-8.4-2.4h-10v18.5h10
				c3.7,0,6.5-0.8,8.4-2.4s2.8-3.9,2.8-6.8C52.4,347.5,51.5,345.2,49.6,343.6z"/>
			
				<linearGradient id="SVGID_7_" gradientUnits="userSpaceOnUse" x1="22.3433" y1="-586.7" x2="702.8714" y2="-586.7" gradientTransform="matrix(1 0 0 -1 0 -228)">
				<stop  offset="0" style="stop-color:#008CFF"/>
				<stop  offset="0.2035" style="stop-color:#0091FF"/>
				<stop  offset="0.4428" style="stop-color:#009FFF"/>
				<stop  offset="0.7" style="stop-color:#01B7FF"/>
				<stop  offset="0.9684" style="stop-color:#01D8FF"/>
				<stop  offset="1" style="stop-color:#01DCFF"/>
			</linearGradient>
			<path class="st6" d="M94.5,387.2c-5.4-2.8-9.6-6.7-12.6-11.7c-3.1-5-4.6-10.6-4.6-16.8c0-6.2,1.5-11.9,4.6-16.8
				c3.1-5,7.3-8.9,12.6-11.7c5.4-2.8,11.4-4.2,18.1-4.2s12.8,1.4,18.1,4.2c5.4,2.8,9.6,6.7,12.6,11.7c3.1,5,4.6,10.6,4.6,16.8
				c0,6.2-1.5,11.9-4.6,16.8c-3.1,5-7.3,8.9-12.6,11.7c-5.4,2.8-11.4,4.2-18.1,4.2C105.9,391.4,99.9,390,94.5,387.2z M121.4,374.4
				c2.6-1.5,4.7-3.6,6.2-6.4c1.5-2.7,2.3-5.9,2.3-9.4s-0.8-6.7-2.3-9.4c-1.5-2.7-3.6-4.8-6.2-6.4c-2.6-1.5-5.5-2.3-8.7-2.3
				s-6.1,0.8-8.7,2.3s-4.7,3.6-6.2,6.4c-1.5,2.7-2.3,5.9-2.3,9.4s0.8,6.7,2.3,9.4c1.5,2.7,3.6,4.9,6.2,6.4s5.5,2.3,8.7,2.3
				C115.8,376.6,118.8,375.9,121.4,374.4z"/>
			
				<linearGradient id="SVGID_8_" gradientUnits="userSpaceOnUse" x1="81.3579" y1="-586.55" x2="599.4168" y2="-586.55" gradientTransform="matrix(1 0 0 -1 0 -228)">
				<stop  offset="0" style="stop-color:#008CFF"/>
				<stop  offset="0.2035" style="stop-color:#0091FF"/>
				<stop  offset="0.4428" style="stop-color:#009FFF"/>
				<stop  offset="0.7" style="stop-color:#01B7FF"/>
				<stop  offset="0.9684" style="stop-color:#01D8FF"/>
				<stop  offset="1" style="stop-color:#01DCFF"/>
			</linearGradient>
			<path class="st7" d="M215,363.1c2.1,2.7,3.1,5.9,3.1,9.7c0,5.5-2.2,9.8-6.7,12.8s-11,4.5-19.5,4.5h-34.4V327H190
				c8.1,0,14.3,1.5,18.6,4.5c4.2,3,6.4,7,6.4,12c0,3-0.7,5.7-2.2,8.1s-3.6,4.2-6.3,5.6C210,358.5,212.9,360.5,215,363.1z
				 M175.3,339.9v12.2h12.4c6.1,0,9.1-2,9.1-6.1c0-4-3-6-9.1-6h-12.4V339.9z M199.9,370.9c0-4.3-3.2-6.4-9.5-6.4h-15.1v12.8h15.1
				C196.7,377.2,199.9,375.1,199.9,370.9z"/>
			
				<linearGradient id="SVGID_9_" gradientUnits="userSpaceOnUse" x1="62.9911" y1="-586.7" x2="743.5194" y2="-586.7" gradientTransform="matrix(1 0 0 -1 0 -228)">
				<stop  offset="0" style="stop-color:#008CFF"/>
				<stop  offset="0.2035" style="stop-color:#0091FF"/>
				<stop  offset="0.4428" style="stop-color:#009FFF"/>
				<stop  offset="0.7" style="stop-color:#01B7FF"/>
				<stop  offset="0.9684" style="stop-color:#01D8FF"/>
				<stop  offset="1" style="stop-color:#01DCFF"/>
			</linearGradient>
			<path class="st8" d="M241.4,387.2c-5.4-2.8-9.6-6.7-12.6-11.7c-3.1-5-4.6-10.6-4.6-16.8c0-6.2,1.5-11.9,4.6-16.8
				c3.1-5,7.3-8.9,12.6-11.7c5.4-2.8,11.4-4.2,18.1-4.2s12.8,1.4,18.1,4.2c5.4,2.8,9.6,6.7,12.6,11.7c3.1,5,4.6,10.6,4.6,16.8
				c0,6.2-1.5,11.9-4.6,16.8c-3.1,5-7.3,8.9-12.6,11.7c-5.4,2.8-11.4,4.2-18.1,4.2C252.8,391.4,246.7,390,241.4,387.2z M268.3,374.4
				c2.6-1.5,4.7-3.6,6.2-6.4c1.5-2.7,2.3-5.9,2.3-9.4s-0.8-6.7-2.3-9.4c-1.5-2.7-3.6-4.8-6.2-6.4c-2.6-1.5-5.5-2.3-8.7-2.3
				s-6.1,0.8-8.7,2.3c-2.6,1.5-4.7,3.6-6.2,6.4c-1.5,2.7-2.3,5.9-2.3,9.4s0.8,6.7,2.3,9.4c1.5,2.7,3.6,4.9,6.2,6.4
				c2.6,1.5,5.5,2.3,8.7,2.3C262.7,376.6,265.6,375.9,268.3,374.4z"/>
			
				<linearGradient id="SVGID_10_" gradientUnits="userSpaceOnUse" x1="108.2105" y1="-586.65" x2="747.5533" y2="-586.65" gradientTransform="matrix(1 0 0 -1 0 -228)">
				<stop  offset="0" style="stop-color:#008CFF"/>
				<stop  offset="0.2035" style="stop-color:#0091FF"/>
				<stop  offset="0.4428" style="stop-color:#009FFF"/>
				<stop  offset="0.7" style="stop-color:#01B7FF"/>
				<stop  offset="0.9684" style="stop-color:#01D8FF"/>
				<stop  offset="1" style="stop-color:#01DCFF"/>
			</linearGradient>
			<path class="st9" d="M347,377.9h-26.9l-5,12.3h-18.4l28.1-63.1h17.7l28.2,63.1H352L347,377.9z M341.7,364.7l-8.2-20.2l-8.2,20.2
				H341.7z"/>
			
				<linearGradient id="SVGID_11_" gradientUnits="userSpaceOnUse" x1="159.9009" y1="-586.6" x2="693.5289" y2="-586.6" gradientTransform="matrix(1 0 0 -1 0 -228)">
				<stop  offset="0" style="stop-color:#008CFF"/>
				<stop  offset="0.2035" style="stop-color:#0091FF"/>
				<stop  offset="0.4428" style="stop-color:#009FFF"/>
				<stop  offset="0.7" style="stop-color:#01B7FF"/>
				<stop  offset="0.9684" style="stop-color:#01D8FF"/>
				<stop  offset="1" style="stop-color:#01DCFF"/>
			</linearGradient>
			<path class="st10" d="M389.4,341.2h-19.6v-14.1h57v14.1h-19.5v48.9h-18v-48.9H389.4z"/>
			
				<linearGradient id="SVGID_12_" gradientUnits="userSpaceOnUse" x1="224.5432" y1="-586.65" x2="716.4023" y2="-586.65" gradientTransform="matrix(1 0 0 -1 0 -228)">
				<stop  offset="0" style="stop-color:#008CFF"/>
				<stop  offset="0.2035" style="stop-color:#0091FF"/>
				<stop  offset="0.4428" style="stop-color:#009FFF"/>
				<stop  offset="0.7" style="stop-color:#01B7FF"/>
				<stop  offset="0.9684" style="stop-color:#01D8FF"/>
				<stop  offset="1" style="stop-color:#01DCFF"/>
			</linearGradient>
			<path class="st11" d="M467.4,389.5c-4.9-1.3-8.8-2.9-11.8-5l5.9-13.2c2.8,1.9,6.2,3.4,9.9,4.5c3.8,1.1,7.5,1.7,11.1,1.7
				c6.9,0,10.4-1.7,10.4-5.1c0-1.8-1-3.1-3-4s-5.1-1.8-9.5-2.7c-4.8-1-8.8-2.1-12-3.3c-3.2-1.2-6-3-8.3-5.6s-3.5-6.1-3.5-10.5
				c0-3.8,1.1-7.3,3.2-10.4s5.3-5.5,9.5-7.3s9.4-2.7,15.5-2.7c4.2,0,8.3,0.5,12.4,1.4s7.6,2.3,10.7,4.1l-5.5,13.2
				c-6.1-3.2-11.9-4.9-17.6-4.9c-3.6,0-6.2,0.5-7.8,1.6c-1.6,1.1-2.5,2.4-2.5,4.1s1,2.9,2.9,3.8c1.9,0.8,5.1,1.7,9.4,2.6
				c4.9,1,8.9,2.1,12.1,3.3s5.9,3,8.3,5.6c2.3,2.6,3.5,6,3.5,10.4c0,3.8-1.1,7.2-3.2,10.3c-2.1,3.1-5.3,5.5-9.6,7.3
				c-4.2,1.8-9.4,2.7-15.5,2.7C477.3,391.4,472.3,390.8,467.4,389.5z"/>
			
				<linearGradient id="SVGID_13_" gradientUnits="userSpaceOnUse" x1="221.8397" y1="-586.6" x2="755.4678" y2="-586.6" gradientTransform="matrix(1 0 0 -1 0 -228)">
				<stop  offset="0" style="stop-color:#008CFF"/>
				<stop  offset="0.2035" style="stop-color:#0091FF"/>
				<stop  offset="0.4428" style="stop-color:#009FFF"/>
				<stop  offset="0.7" style="stop-color:#01B7FF"/>
				<stop  offset="0.9684" style="stop-color:#01D8FF"/>
				<stop  offset="1" style="stop-color:#01DCFF"/>
			</linearGradient>
			<path class="st12" d="M532.5,341.2h-19.6v-14.1h57v14.1h-19.5v48.9h-18L532.5,341.2L532.5,341.2z"/>
			
				<linearGradient id="SVGID_14_" gradientUnits="userSpaceOnUse" x1="452.9893" y1="-586.65" x2="661.8138" y2="-586.65" gradientTransform="matrix(1 0 0 -1 0 -228)">
				<stop  offset="0" style="stop-color:#008CFF"/>
				<stop  offset="0.2035" style="stop-color:#0091FF"/>
				<stop  offset="0.4428" style="stop-color:#009FFF"/>
				<stop  offset="0.7" style="stop-color:#01B7FF"/>
				<stop  offset="0.9684" style="stop-color:#01D8FF"/>
				<stop  offset="1" style="stop-color:#01DCFF"/>
			</linearGradient>
			<path class="st13" d="M576.7,327.1h18v63.1h-18V327.1z"/>
			
				<linearGradient id="SVGID_15_" gradientUnits="userSpaceOnUse" x1="319.6451" y1="-586.65" x2="780.1841" y2="-586.65" gradientTransform="matrix(1 0 0 -1 0 -228)">
				<stop  offset="0" style="stop-color:#008CFF"/>
				<stop  offset="0.2035" style="stop-color:#0091FF"/>
				<stop  offset="0.4428" style="stop-color:#009FFF"/>
				<stop  offset="0.7" style="stop-color:#01B7FF"/>
				<stop  offset="0.9684" style="stop-color:#01D8FF"/>
				<stop  offset="1" style="stop-color:#01DCFF"/>
			</linearGradient>
			<path class="st14" d="M668.1,327.1v63.1h-14.8l-28.1-33.6v33.6h-17.6v-63.1h14.8l28.1,33.6v-33.6H668.1z"/>
			
				<linearGradient id="SVGID_16_" gradientUnits="userSpaceOnUse" x1="242.3916" y1="-586.5" x2="847.7563" y2="-586.5" gradientTransform="matrix(1 0 0 -1 0 -228)">
				<stop  offset="0" style="stop-color:#008CFF"/>
				<stop  offset="0.2035" style="stop-color:#0091FF"/>
				<stop  offset="0.4428" style="stop-color:#009FFF"/>
				<stop  offset="0.7" style="stop-color:#01B7FF"/>
				<stop  offset="0.9684" style="stop-color:#01D8FF"/>
				<stop  offset="1" style="stop-color:#01DCFF"/>
			</linearGradient>
			<path class="st15" d="M723.5,357.2h15.9v26.1c-3.6,2.6-7.8,4.6-12.6,5.9c-4.7,1.4-9.5,2.1-14.2,2.1c-6.7,0-12.7-1.4-18-4.2
				c-5.3-2.8-9.5-6.7-12.6-11.7c-3-5-4.5-10.6-4.5-16.9s1.5-12,4.5-16.9c3-5,7.2-8.9,12.6-11.7c5.4-2.8,11.5-4.2,18.3-4.2
				c5.9,0,11.3,1,16,3s8.7,4.8,11.8,8.6l-11.5,10.3c-4.3-4.7-9.5-7-15.5-7c-5.5,0-9.9,1.6-13.2,4.9s-5,7.6-5,13.1
				c0,3.5,0.8,6.6,2.3,9.3c1.5,2.7,3.6,4.9,6.4,6.4c2.7,1.5,5.9,2.3,9.4,2.3s6.7-0.7,9.7-2.1v-17.3L723.5,357.2L723.5,357.2z"/>
			
				<linearGradient id="SVGID_17_" gradientUnits="userSpaceOnUse" x1="348.4398" y1="-586.65" x2="866.0321" y2="-586.65" gradientTransform="matrix(1 0 0 -1 0 -228)">
				<stop  offset="0" style="stop-color:#008CFF"/>
				<stop  offset="0.2035" style="stop-color:#0091FF"/>
				<stop  offset="0.4428" style="stop-color:#009FFF"/>
				<stop  offset="0.7" style="stop-color:#01B7FF"/>
				<stop  offset="0.9684" style="stop-color:#01D8FF"/>
				<stop  offset="1" style="stop-color:#01DCFF"/>
			</linearGradient>
			<path class="st16" d="M778.7,373.4h-9.8v16.8h-18v-63.1H780c5.8,0,10.8,0.9,15,2.8s7.5,4.6,9.8,8.1s3.5,7.6,3.5,12.4
				c0,4.6-1.1,8.5-3.2,11.9c-2.2,3.4-5.2,6.1-9.2,8l13.7,19.8h-19.3L778.7,373.4z M787.3,343.6c-1.9-1.6-4.7-2.4-8.4-2.4h-10v18.5
				h10c3.7,0,6.5-0.8,8.4-2.4s2.8-3.9,2.8-6.8C790.1,347.5,789.1,345.2,787.3,343.6z"/>
			
				<linearGradient id="SVGID_18_" gradientUnits="userSpaceOnUse" x1="272.8718" y1="-586.65" x2="912.2144" y2="-586.65" gradientTransform="matrix(1 0 0 -1 0 -228)">
				<stop  offset="0" style="stop-color:#008CFF"/>
				<stop  offset="0.2035" style="stop-color:#0091FF"/>
				<stop  offset="0.4428" style="stop-color:#009FFF"/>
				<stop  offset="0.7" style="stop-color:#01B7FF"/>
				<stop  offset="0.9684" style="stop-color:#01D8FF"/>
				<stop  offset="1" style="stop-color:#01DCFF"/>
			</linearGradient>
			<path class="st17" d="M860.8,377.9h-26.9l-5,12.3h-18.4l28.1-63.1h17.7l28.2,63.1h-18.7L860.8,377.9z M855.6,364.7l-8.2-20.2
				l-8.2,20.2H855.6z"/>
			
				<linearGradient id="SVGID_19_" gradientUnits="userSpaceOnUse" x1="320.9767" y1="-586.55" x2="915.8206" y2="-586.55" gradientTransform="matrix(1 0 0 -1 0 -228)">
				<stop  offset="0" style="stop-color:#008CFF"/>
				<stop  offset="0.2035" style="stop-color:#0091FF"/>
				<stop  offset="0.4428" style="stop-color:#009FFF"/>
				<stop  offset="0.7" style="stop-color:#01B7FF"/>
				<stop  offset="0.9684" style="stop-color:#01D8FF"/>
				<stop  offset="1" style="stop-color:#01DCFF"/>
			</linearGradient>
			<path class="st18" d="M923.8,367.5v22.6h-18v-22.9L881.5,327h19l15.1,25l15.1-25h17.5L923.8,367.5z"/>
		</g>
	</g>
</g>
</svg>
